<?xml version="1.0" encoding="UTF-8"?>
<svg xmlns="http://www.w3.org/2000/svg" xmlns:xlink="http://www.w3.org/1999/xlink" width="252pt" height="251pt" viewBox="0 0 252 251" version="1.1">
<g id="surface1">
<path style=" stroke:none;fill-rule:nonzero;fill:rgb(85.882353%,9.803922%,12.941176%);fill-opacity:1;" d="M 22.625 125.367188 C 22.625 69.007812 68.433594 23.15625 124.742188 23.15625 C 181.054688 23.15625 226.859375 69.007812 226.859375 125.367188 C 226.859375 181.726562 181.054688 227.578125 124.742188 227.578125 C 68.433594 227.578125 22.625 181.726562 22.625 125.367188 M 19.722656 125.367188 C 19.722656 183.328125 66.835938 230.484375 124.742188 230.484375 C 182.65625 230.484375 229.761719 183.328125 229.761719 125.367188 C 229.761719 67.40625 182.65625 20.253906 124.742188 20.253906 C 66.835938 20.253906 19.722656 67.40625 19.722656 125.367188 "/>
<path style=" stroke:none;fill-rule:nonzero;fill:rgb(85.882353%,9.803922%,12.941176%);fill-opacity:1;" d="M 53.964844 125.65625 C 53.964844 86.328125 85.929688 54.328125 125.226562 54.328125 C 164.523438 54.328125 196.492188 86.328125 196.492188 125.65625 C 196.492188 164.988281 164.523438 196.984375 125.226562 196.984375 C 85.929688 196.984375 53.964844 164.988281 53.964844 125.65625 M 51.0625 125.65625 C 51.0625 166.589844 84.332031 199.890625 125.226562 199.890625 C 166.121094 199.890625 199.394531 166.589844 199.394531 125.65625 C 199.394531 84.726562 166.121094 51.425781 125.226562 51.425781 C 84.332031 51.425781 51.0625 84.726562 51.0625 125.65625 "/>
<path style=" stroke:none;fill-rule:nonzero;fill:rgb(85.882353%,9.803922%,12.941176%);fill-opacity:1;" d="M 146.914062 8.679688 C 146.914062 8.679688 147.691406 5.128906 147.988281 3.75 C 156.679688 4.980469 167.003906 8.183594 174.945312 12.105469 C 174.140625 13.765625 168.988281 24.398438 168.988281 24.398438 L 170.0625 24.835938 C 177.699219 27.960938 189.898438 35.640625 195.703125 40.421875 L 196.464844 41.046875 C 196.464844 41.046875 200.757812 36.753906 201.824219 35.683594 C 208.261719 41.085938 216.644531 49.546875 221.757812 57.9375 L 222.328125 58.875 C 222.328125 58.875 226.675781 56.171875 227.832031 55.453125 C 231.707031 60.210938 238.503906 73.605469 240.78125 80.304688 C 239.226562 80.988281 228.5 85.707031 228.5 85.707031 L 228.902344 86.691406 C 231.839844 93.867188 235.039062 106.5 235.300781 115.21875 L 235.335938 116.375 C 235.335938 116.375 241.195312 115.855469 242.671875 115.722656 C 243.234375 118.75 243.527344 122.582031 243.527344 126.78125 C 243.527344 132.964844 242.929688 139.851562 241.777344 145.753906 L 241.570312 146.808594 C 241.570312 146.808594 246.304688 147.8125 247.652344 148.097656 C 246.78125 156.757812 241.980469 170.347656 239.394531 175.015625 C 237.886719 174.394531 226.652344 169.785156 226.652344 169.785156 L 226.238281 170.785156 C 223.648438 177.050781 216.226562 189.863281 210.507812 195.675781 L 209.746094 196.449219 C 209.746094 196.449219 213.949219 200.652344 214.984375 201.691406 C 208.71875 209.683594 199.402344 217.316406 193.164062 221.503906 L 192.308594 222.082031 C 192.308594 222.082031 194.90625 226.414062 195.613281 227.597656 C 192.269531 230.074219 179.96875 237.484375 170.792969 240.738281 C 170.113281 239.121094 165.535156 228.210938 165.535156 228.210938 L 164.5625 228.558594 C 153.722656 232.40625 148.644531 233.746094 135.867188 235.21875 L 134.851562 235.332031 C 134.851562 235.332031 135.136719 241.015625 135.214844 242.5625 C 123.566406 243.5 115.496094 243.214844 104.871094 241.488281 L 103.796875 241.3125 C 103.796875 241.3125 103.050781 245.875 102.808594 247.359375 C 92.910156 245.636719 84.292969 242.957031 75.90625 239.003906 C 76.617188 237.332031 81.070312 226.773438 81.070312 226.773438 L 80.125 226.328125 C 73.179688 223.035156 58.949219 214.226562 55.164062 210.878906 L 54.402344 210.207031 C 54.402344 210.207031 50.25 214.292969 49.253906 215.269531 C 44.773438 211.878906 34.074219 200.667969 29.121094 193.636719 L 28.535156 192.808594 C 28.535156 192.808594 24.507812 195.238281 23.285156 195.976562 C 17.222656 187.25 12.847656 178.886719 10.269531 171.089844 C 11.871094 170.417969 22.625 165.902344 22.625 165.902344 L 22.265625 164.925781 C 17.976562 153.324219 16.496094 143.996094 15.613281 136.394531 L 15.503906 135.445312 C 15.503906 135.445312 9.617188 135.371094 8.160156 135.355469 C 7.9375 133.277344 7.835938 130.617188 7.835938 127.679688 C 7.835938 119.652344 8.550781 109.820312 9.339844 105.867188 L 9.550781 104.828125 C 9.550781 104.828125 5.003906 103.78125 3.625 103.460938 C 5.117188 94.105469 8.71875 83.082031 11.652344 76.640625 C 13.308594 77.304688 24.359375 81.726562 24.359375 81.726562 L 24.78125 80.761719 C 27.800781 73.894531 35.707031 61.871094 40.257812 55.828125 L 40.808594 55.101562 C 40.808594 55.101562 36.925781 50.929688 35.941406 49.875 C 41.082031 43.828125 53.1875 32.871094 57.859375 29.753906 L 58.765625 29.148438 C 58.765625 29.148438 56.195312 25.289062 55.441406 24.15625 C 60.46875 20.097656 72.84375 13.179688 80.117188 10.367188 C 80.785156 12.09375 85.21875 23.667969 85.21875 23.667969 L 86.257812 23.21875 C 96.269531 18.925781 103.527344 17.480469 115.082031 16.039062 L 116.023438 15.917969 C 116.023438 15.917969 116.097656 10.011719 116.113281 8.519531 C 124.09375 7.859375 136.207031 7.742188 145.648438 9.515625 L 146.6875 9.710938 Z M 146.082031 2.28125 C 146.082031 2.28125 145.308594 5.832031 145.003906 7.214844 C 135.117188 5.523438 122.742188 5.707031 114.9375 6.425781 L 113.960938 6.515625 C 113.960938 6.515625 113.886719 12.558594 113.871094 14 C 103.074219 15.378906 95.875 16.859375 86.449219 20.789062 C 85.773438 19.027344 81.386719 7.582031 81.386719 7.582031 L 80.382812 7.9375 C 72.613281 10.707031 58.167969 18.800781 53.269531 23.125 L 52.558594 23.757812 C 52.558594 23.757812 54.972656 27.378906 55.761719 28.5625 C 49.921875 32.777344 37.894531 43.964844 33.644531 49.222656 L 33.046875 49.957031 C 33.046875 49.957031 37.039062 54.25 37.976562 55.257812 C 33.507812 61.300781 26.457031 72.082031 23.246094 78.9375 C 21.628906 78.285156 10.542969 73.851562 10.542969 73.851562 L 10.101562 74.769531 C 6.941406 81.398438 2.78125 93.941406 1.300781 104.136719 L 1.15625 105.125 C 1.15625 105.125 5.652344 106.167969 7.03125 106.488281 C 6.296875 111.007812 5.667969 120.136719 5.667969 127.753906 C 5.667969 131.21875 5.796875 134.359375 6.105469 136.582031 L 6.234375 137.507812 C 6.234375 137.507812 12.128906 137.582031 13.570312 137.601562 C 14.457031 144.929688 15.960938 153.808594 19.878906 164.695312 C 18.269531 165.371094 7.574219 169.859375 7.574219 169.859375 L 7.871094 170.804688 C 10.550781 179.332031 15.332031 188.503906 22.078125 198.070312 L 22.660156 198.898438 C 22.660156 198.898438 26.742188 196.4375 27.9375 195.714844 C 33.613281 203.46875 44.726562 214.933594 48.765625 217.601562 L 49.5 218.085938 C 49.5 218.085938 53.460938 214.1875 54.503906 213.164062 C 59.054688 216.800781 71.363281 224.410156 78.257812 227.835938 C 77.578125 229.449219 73.085938 240.097656 73.085938 240.097656 L 74.015625 240.550781 C 83.199219 244.996094 92.574219 247.910156 103.519531 249.722656 L 104.597656 249.898438 C 104.597656 249.898438 105.359375 245.238281 105.597656 243.796875 C 116.195312 245.449219 124.429688 245.679688 136.449219 244.648438 L 137.492188 244.558594 C 137.492188 244.558594 137.203125 238.765625 137.128906 237.261719 C 148.988281 235.855469 154.257812 234.496094 164.320312 230.949219 C 165 232.566406 169.574219 243.460938 169.574219 243.460938 L 170.53125 243.144531 C 180.804688 239.746094 195.585938 230.667969 197.773438 228.660156 L 198.429688 228.058594 C 198.429688 228.058594 195.964844 223.949219 195.226562 222.71875 C 201.785156 218.199219 211.160156 210.402344 217.316406 202.277344 L 217.886719 201.519531 C 217.886719 201.519531 213.886719 197.507812 212.792969 196.417969 C 218.359375 190.382812 224.9375 179.140625 227.820312 172.617188 C 229.492188 173.304688 240.273438 177.726562 240.273438 177.726562 L 240.761719 176.972656 C 243.746094 172.394531 249.289062 156.332031 249.917969 147.3125 L 249.984375 146.367188 C 249.984375 146.367188 245.492188 145.410156 244.089844 145.113281 C 245.152344 139.269531 245.71875 132.761719 245.71875 126.835938 C 245.71875 122.046875 245.363281 117.652344 244.636719 114.320312 L 244.433594 113.382812 C 244.433594 113.382812 238.984375 113.863281 237.398438 114.003906 C 236.933594 105.492188 234.074219 94.023438 231.292969 86.859375 C 232.902344 86.152344 243.449219 81.511719 243.449219 81.511719 L 243.167969 80.585938 C 241.042969 73.617188 232.996094 57.765625 228.855469 53.292969 L 228.246094 52.632812 C 228.246094 52.632812 224.285156 55.09375 223.027344 55.875 C 216.140625 45.03125 205.59375 35.941406 202.457031 33.363281 L 201.691406 32.734375 C 201.691406 32.734375 197.339844 37.089844 196.304688 38.128906 C 190.410156 33.445312 179.464844 26.578125 171.945312 23.292969 C 172.765625 21.589844 177.84375 11.113281 177.84375 11.113281 L 176.894531 10.625 C 168.359375 6.238281 156.734375 2.628906 147.28125 1.4375 L 146.296875 1.308594 L 146.082031 2.28125 "/>
<path style=" stroke:none;fill-rule:nonzero;fill:rgb(85.882353%,9.803922%,12.941176%);fill-opacity:1;" d="M 236.285156 84.519531 C 237.582031 87.457031 239.945312 94.738281 240.5 97.882812 L 240.628906 98.625 C 240.628906 98.625 245.894531 97.496094 247.007812 97.257812 C 248.941406 105.597656 250.144531 117.164062 250.269531 128.554688 C 249.171875 128.589844 245.269531 128.714844 245.269531 128.714844 L 245.316406 130.164062 L 251.742188 129.960938 L 251.734375 129.253906 C 251.652344 117.226562 250.351562 104.878906 248.265625 96.222656 L 248.097656 95.535156 C 248.097656 95.535156 242.894531 96.652344 241.773438 96.894531 C 241.019531 93.386719 238.851562 86.738281 237.613281 83.933594 Z M 236.285156 84.519531 "/>
<path style=" stroke:none;fill-rule:nonzero;fill:rgb(85.882353%,9.803922%,12.941176%);fill-opacity:1;" d="M 226.359375 187.117188 L 225.929688 187.734375 C 225.929688 187.734375 230.449219 190.664062 231.40625 191.289062 C 226.875 198.550781 219.554688 207.578125 211.59375 215.71875 C 210.792969 214.972656 207.945312 212.292969 207.945312 212.292969 L 206.953125 213.355469 L 211.636719 217.753906 L 212.132812 217.253906 C 220.578125 208.691406 228.382812 199.042969 233.027344 191.449219 L 233.394531 190.84375 C 233.394531 190.84375 228.921875 187.945312 227.960938 187.324219 C 229.910156 184.316406 233.070312 178.074219 234.179688 175.21875 L 232.828125 174.691406 C 231.667969 177.683594 228.191406 184.5 226.359375 187.117188 "/>
<path style=" stroke:none;fill-rule:nonzero;fill:rgb(85.882353%,9.803922%,12.941176%);fill-opacity:1;" d="M 153.265625 239.96875 L 152.523438 240.09375 C 152.523438 240.09375 153.625 245.367188 153.859375 246.484375 C 145.511719 248.378906 133.953125 249.53125 122.574219 249.597656 C 122.542969 248.5 122.4375 244.59375 122.4375 244.59375 L 120.988281 244.636719 L 121.160156 251.0625 L 121.871094 251.0625 C 133.882812 251.035156 146.226562 249.800781 154.882812 247.753906 L 155.574219 247.589844 C 155.574219 247.589844 154.484375 242.371094 154.246094 241.246094 C 157.75 240.515625 164.402344 238.371094 167.214844 237.148438 L 166.632812 235.8125 C 163.695312 237.097656 156.40625 239.429688 153.265625 239.96875 "/>
<path style=" stroke:none;fill-rule:nonzero;fill:rgb(85.882353%,9.803922%,12.941176%);fill-opacity:1;" d="M 33.828125 210.984375 L 33.34375 211.5 L 33.84375 212.003906 C 42.386719 220.464844 52.011719 228.296875 59.59375 232.957031 L 60.195312 233.324219 C 60.195312 233.324219 63.097656 228.855469 63.71875 227.894531 C 66.71875 229.847656 72.949219 233.023438 75.800781 234.136719 L 76.328125 232.78125 C 73.34375 231.621094 66.539062 228.128906 63.925781 226.292969 L 63.308594 225.859375 C 63.308594 225.859375 60.378906 230.375 59.753906 231.332031 C 52.507812 226.789062 43.496094 219.445312 35.375 211.457031 C 36.125 210.660156 38.804688 207.820312 38.804688 207.820312 L 37.746094 206.820312 Z M 33.828125 210.984375 "/>
<path style=" stroke:none;fill-rule:nonzero;fill:rgb(85.882353%,9.803922%,12.941176%);fill-opacity:1;" d="M 0.71875 121.363281 L 0.0078125 121.378906 L 0.00390625 122.082031 C -0.078125 134.113281 1.050781 146.476562 3.019531 155.160156 L 3.175781 155.851562 C 3.175781 155.851562 8.398438 154.804688 9.523438 154.582031 C 10.226562 158.09375 12.304688 164.773438 13.507812 167.59375 L 14.839844 167.027344 C 13.589844 164.074219 11.324219 156.761719 10.8125 153.609375 L 10.691406 152.867188 C 10.691406 152.867188 5.414062 153.921875 4.292969 154.144531 C 2.503906 145.898438 1.453125 134.53125 1.453125 123.300781 C 1.453125 123.136719 1.453125 122.96875 1.453125 122.804688 C 2.542969 122.785156 6.457031 122.714844 6.457031 122.714844 L 6.4375 121.261719 Z M 0.71875 121.363281 "/>
<path style=" stroke:none;fill-rule:nonzero;fill:rgb(85.882353%,9.803922%,12.941176%);fill-opacity:1;" d="M 39.175781 34.585938 C 30.675781 43.089844 22.796875 52.683594 18.105469 60.242188 L 17.730469 60.84375 C 17.730469 60.84375 22.183594 63.773438 23.140625 64.40625 C 21.175781 67.398438 17.96875 73.613281 16.839844 76.464844 L 18.1875 77 C 19.371094 74.015625 22.890625 67.222656 24.738281 64.617188 L 25.175781 64.003906 C 25.175781 64.003906 20.675781 61.046875 19.726562 60.417969 C 24.304688 53.1875 31.6875 44.207031 39.707031 36.121094 C 40.5 36.878906 43.328125 39.574219 43.328125 39.574219 L 44.332031 38.519531 L 39.679688 34.085938 Z M 39.175781 34.585938 "/>
<path style=" stroke:none;fill-rule:nonzero;fill:rgb(85.882353%,9.803922%,12.941176%);fill-opacity:1;" d="M 128.960938 0.0078125 C 116.941406 0.105469 104.605469 1.417969 95.964844 3.519531 L 95.277344 3.6875 C 95.277344 3.6875 96.398438 8.898438 96.640625 10.019531 C 93.140625 10.773438 86.5 12.957031 83.699219 14.199219 L 84.285156 15.527344 C 87.21875 14.226562 94.488281 11.851562 97.628906 11.292969 L 98.371094 11.164062 C 98.371094 11.164062 97.234375 5.894531 96.996094 4.777344 C 105.328125 2.835938 116.882812 1.613281 128.265625 1.472656 C 128.300781 2.570312 128.433594 6.476562 128.433594 6.476562 L 129.878906 6.425781 L 129.667969 0 Z M 128.960938 0.0078125 "/>
<path style=" stroke:none;fill-rule:nonzero;fill:rgb(85.882353%,9.803922%,12.941176%);fill-opacity:1;" d="M 174.179688 17.988281 C 177.269531 19.230469 184.625 23.214844 187.085938 24.984375 L 187.695312 25.421875 C 187.695312 25.421875 190.699219 20.902344 191.3125 19.964844 C 196.558594 23.179688 206.101562 29.78125 215.511719 40.070312 C 214.769531 40.84375 212.027344 43.695312 212.027344 43.695312 L 213.078125 44.703125 L 217.503906 40.089844 L 217.050781 39.585938 C 207.039062 28.496094 196.726562 21.527344 191.476562 18.355469 L 190.878906 17.996094 C 190.878906 17.996094 187.941406 22.429688 187.308594 23.386719 C 184.335938 21.410156 177.734375 17.851562 174.722656 16.640625 Z M 174.179688 17.988281 "/>
<path style=" stroke:none;fill-rule:nonzero;fill:rgb(85.882353%,9.803922%,12.941176%);fill-opacity:1;" d="M 179.484375 103.609375 L 153.90625 103.609375 L 152.226562 106.949219 L 177.289062 106.949219 C 176.285156 110.035156 172.230469 111.78125 170.394531 112.289062 L 149.304688 112.28125 L 147.125 115.640625 L 167.492188 115.640625 C 166.878906 117.796875 162.929688 120.089844 158.804688 120.65625 L 141.820312 120.65625 C 141.820312 120.65625 141.027344 120.941406 140.664062 121.644531 L 140.664062 124.3125 L 141.21875 125.71875 L 138.136719 125.730469 C 138.136719 125.730469 138.226562 118.90625 136.113281 114.734375 C 141.507812 111.058594 145.742188 102.621094 144.746094 98.601562 C 142.902344 98.550781 142.507812 95.628906 144.335938 95.394531 C 146.105469 95.167969 146.742188 97.332031 146.21875 98.601562 L 185.382812 98.59375 C 185.246094 99.664062 182.164062 103 179.484375 103.609375 M 136.75 160.644531 L 113.855469 160.644531 L 113.855469 159.554688 L 136.75 159.554688 Z M 126.738281 165.324219 L 125.289062 191.925781 L 123.835938 165.324219 L 123.859375 165.324219 C 122.878906 164.847656 122.203125 163.910156 122.203125 162.816406 C 122.203125 162.652344 122.21875 162.488281 122.25 162.328125 L 128.34375 162.304688 C 128.378906 162.472656 128.394531 162.640625 128.394531 162.816406 C 128.394531 163.910156 127.714844 164.847656 126.738281 165.324219 M 112.382812 125.75 L 109.300781 125.738281 L 109.851562 124.328125 L 109.851562 121.660156 C 109.492188 120.957031 108.699219 120.671875 108.699219 120.671875 L 91.710938 120.671875 C 87.585938 120.105469 83.640625 117.816406 83.023438 115.65625 L 103.390625 115.65625 L 101.214844 112.300781 L 80.121094 112.304688 C 78.285156 111.800781 74.226562 110.050781 73.226562 106.964844 L 98.285156 106.964844 L 96.609375 103.628906 L 71.03125 103.628906 C 68.355469 103.015625 65.269531 99.679688 65.136719 98.613281 L 104.296875 98.621094 C 103.777344 97.351562 104.410156 95.183594 106.179688 95.414062 C 108.007812 95.648438 107.617188 98.566406 105.773438 98.621094 C 104.773438 102.636719 109.066406 111.117188 114.464844 114.792969 C 112.464844 118.667969 112.382812 125.75 112.382812 125.75 M 115.523438 158.132812 L 113.855469 158.132812 L 113.855469 156.761719 L 115.523438 156.761719 Z M 117.6875 115.320312 L 132.796875 115.320312 C 133.113281 115.855469 133.386719 116.414062 133.625 116.992188 L 116.886719 116.992188 C 117.109375 116.414062 117.378906 115.855469 117.6875 115.320312 M 125.347656 110.980469 C 127.484375 110.996094 129.136719 111.640625 130.445312 112.632812 L 120 112.632812 C 121.34375 111.617188 123.074219 110.964844 125.347656 110.980469 M 115.800781 121.441406 C 115.871094 120.867188 115.964844 120.28125 116.09375 119.679688 L 134.472656 119.679688 C 134.609375 120.28125 134.71875 120.871094 134.800781 121.441406 Z M 135.078125 156.765625 L 136.742188 156.765625 L 136.742188 158.132812 L 135.078125 158.132812 Z M 119.167969 158.15625 L 117.503906 158.15625 L 117.503906 156.785156 L 119.167969 156.785156 Z M 122.796875 158.132812 L 121.132812 158.132812 L 121.132812 156.765625 L 122.796875 156.765625 Z M 126.152344 158.132812 L 124.492188 158.132812 L 124.492188 156.765625 L 126.152344 156.765625 Z M 129.761719 158.132812 L 128.097656 158.132812 L 128.097656 156.765625 L 129.761719 156.765625 Z M 133.410156 158.132812 L 131.746094 158.132812 L 131.746094 156.765625 L 133.410156 156.765625 Z M 115.792969 128.773438 L 135.023438 128.773438 L 135.023438 154.738281 L 115.792969 154.738281 Z M 135.023438 125.6875 L 115.550781 125.75 C 115.550781 125.355469 115.554688 124.792969 115.578125 124.125 L 135.039062 124.125 C 135.058594 124.789062 135.050781 125.335938 135.023438 125.6875 M 149.023438 95.457031 C 148.84375 94.820312 147.296875 91.671875 143.339844 92.578125 C 139.398438 93.480469 139.074219 99.359375 141.765625 100.84375 C 142.128906 104.476562 136.445312 110.585938 134.359375 112.3125 C 133.566406 111.238281 131.683594 109.828125 129.507812 109.164062 C 129.710938 105.628906 126.820312 104.476562 125.710938 104.476562 L 125.289062 104.480469 C 124.253906 104.402344 120.871094 105.644531 121.078125 109.175781 C 118.898438 109.839844 117.019531 111.25 116.222656 112.324219 C 114.140625 110.597656 108.457031 104.484375 108.816406 100.851562 C 111.507812 99.371094 111.183594 93.492188 107.246094 92.589844 C 103.285156 91.683594 101.742188 94.828125 101.558594 95.464844 L 60.769531 95.4375 C 60.53125 98.828125 63.792969 104.332031 69.660156 106.328125 C 70.628906 111.050781 76.304688 114.800781 78.972656 115.167969 C 80.183594 119.644531 85.324219 122.734375 89.921875 123.703125 L 106.730469 123.761719 L 106.910156 124.066406 L 106.972656 124.972656 L 104.675781 128.726562 L 112.472656 128.726562 L 112.472656 130.722656 L 103.101562 130.722656 C 111.265625 137.441406 113.445312 152.570312 102.316406 162.316406 L 118.667969 162.316406 C 118.21875 163.164062 119.25 166.554688 121.121094 167.402344 C 123.238281 192.160156 121.851562 195.402344 125.296875 195.378906 L 125.289062 195.367188 C 128.738281 195.394531 127.34375 192.144531 129.460938 167.390625 C 131.335938 166.542969 132.363281 163.152344 131.917969 162.304688 L 148.265625 162.304688 C 137.140625 152.5625 139.316406 137.429688 147.480469 130.710938 L 138.109375 130.710938 L 138.109375 128.714844 L 145.910156 128.714844 L 143.609375 124.960938 L 143.671875 124.054688 L 143.851562 123.75 L 160.664062 123.691406 C 165.261719 122.722656 170.398438 119.632812 171.605469 115.15625 C 174.277344 114.789062 179.953125 111.039062 180.921875 106.320312 C 186.789062 104.324219 190.054688 98.8125 189.8125 95.425781 Z M 149.023438 95.457031 "/>
<path style=" stroke:none;fill-rule:nonzero;fill:rgb(85.882353%,9.803922%,12.941176%);fill-opacity:1;" d="M 116.636719 129.984375 C 116.699219 129.683594 117.335938 128.757812 117.710938 129.851562 C 118.09375 130.9375 118.421875 132.316406 118.289062 132.890625 C 118.152344 133.464844 117.609375 134.34375 117.109375 134.070312 C 116.582031 133.785156 116.441406 132.859375 116.683594 132.4375 C 116.988281 131.90625 116.636719 129.984375 116.636719 129.984375 "/>
<path style=" stroke:none;fill-rule:nonzero;fill:rgb(85.882353%,9.803922%,12.941176%);fill-opacity:1;" d="M 116.714844 136.34375 C 116.9375 135.679688 117.46875 135.386719 117.863281 136.34375 C 118.214844 137.199219 118.199219 139.988281 117.894531 140.273438 C 117.417969 140.730469 116.472656 140.59375 116.578125 139.683594 C 116.640625 139.136719 116.882812 138.703125 116.714844 138.21875 C 116.550781 137.734375 116.625 136.613281 116.714844 136.34375 "/>
<path style=" stroke:none;fill-rule:nonzero;fill:rgb(85.882353%,9.803922%,12.941176%);fill-opacity:1;" d="M 116.457031 142.953125 C 116.539062 142.476562 117.398438 141.59375 117.894531 143.058594 C 118.277344 144.183594 118.09375 147.523438 117.863281 147.824219 C 117.640625 148.125 116.789062 148.445312 116.730469 147.644531 C 116.648438 146.585938 116.339844 143.664062 116.457031 142.953125 "/>
<path style=" stroke:none;fill-rule:nonzero;fill:rgb(85.882353%,9.803922%,12.941176%);fill-opacity:1;" d="M 116.519531 149.945312 C 116.601562 149.464844 117.246094 148.539062 117.742188 150.003906 C 118.125 151.128906 117.910156 153.378906 117.683594 153.683594 C 117.457031 153.984375 116.835938 154.53125 116.457031 153.363281 C 116.667969 152.136719 116.398438 150.65625 116.519531 149.945312 "/>
<path style=" stroke:none;fill-rule:nonzero;fill:rgb(85.882353%,9.803922%,12.941176%);fill-opacity:1;" d="M 121.5 143.21875 C 121.582031 142.738281 122.324219 141.726562 122.824219 143.195312 C 123.203125 144.320312 122.953125 147.226562 122.726562 147.53125 C 122.5 147.832031 121.628906 148.539062 121.570312 147.734375 C 121.488281 146.679688 121.378906 143.929688 121.5 143.21875 "/>
<path style=" stroke:none;fill-rule:nonzero;fill:rgb(85.882353%,9.803922%,12.941176%);fill-opacity:1;" d="M 121.207031 149.832031 C 121.289062 149.351562 122.25 148.46875 122.746094 149.933594 C 123.128906 151.0625 123.179688 153.308594 122.953125 153.613281 C 122.722656 153.917969 121.679688 154.226562 121.386719 153.179688 C 121.097656 152.164062 121.085938 150.542969 121.207031 149.832031 "/>
<path style=" stroke:none;fill-rule:nonzero;fill:rgb(85.882353%,9.803922%,12.941176%);fill-opacity:1;" d="M 119.074219 143.171875 C 119.15625 142.695312 119.867188 141.703125 120.363281 143.171875 C 120.75 144.300781 120.164062 153.5625 119.9375 153.863281 C 119.710938 154.164062 119.097656 154.679688 118.914062 153.433594 C 118.761719 152.382812 118.953125 143.882812 119.074219 143.171875 "/>
<path style=" stroke:none;fill-rule:nonzero;fill:rgb(85.882353%,9.803922%,12.941176%);fill-opacity:1;" d="M 119.234375 130.03125 C 119.3125 129.554688 120.28125 128.5 120.523438 130.03125 C 120.75 131.460938 120.59375 140.554688 120.363281 140.855469 C 120.140625 141.160156 119.480469 141.515625 119.300781 140.265625 C 119.0625 138.628906 119.210938 130.160156 119.234375 130.03125 "/>
<path style=" stroke:none;fill-rule:nonzero;fill:rgb(85.882353%,9.803922%,12.941176%);fill-opacity:1;" d="M 121.820312 130.007812 C 122.257812 129.414062 122.699219 129.417969 122.769531 130.28125 C 122.839844 131.140625 122.300781 133.246094 123.265625 131.378906 C 124.109375 130.652344 124.410156 130.832031 125.539062 129.757812 C 126.347656 128.984375 127.125 130.03125 125.96875 131.324219 C 125.347656 132.015625 123.511719 133.164062 122.882812 133.820312 C 121.953125 134.796875 121.585938 134.324219 121.679688 133.503906 C 121.792969 132.550781 121.5 130.4375 121.820312 130.007812 "/>
<path style=" stroke:none;fill-rule:nonzero;fill:rgb(85.882353%,9.803922%,12.941176%);fill-opacity:1;" d="M 131.703125 129.734375 C 131.242188 129.203125 129.867188 129.167969 130.59375 130.574219 C 131.320312 131.984375 131.703125 132.050781 132.273438 132.117188 C 132.839844 132.1875 133.722656 132.1875 133.40625 131.6875 C 133.089844 131.1875 131.863281 129.914062 131.703125 129.734375 "/>
<path style=" stroke:none;fill-rule:nonzero;fill:rgb(85.882353%,9.803922%,12.941176%);fill-opacity:1;" d="M 124.792969 135.523438 C 125.175781 135.046875 126.375 134.910156 126.148438 136.183594 C 125.921875 137.453125 124.878906 138.746094 124.425781 138.722656 C 123.972656 138.703125 123.8125 138.339844 123.882812 137.839844 C 123.949219 137.339844 124.792969 135.523438 124.792969 135.523438 "/>
<path style=" stroke:none;fill-rule:nonzero;fill:rgb(85.882353%,9.803922%,12.941176%);fill-opacity:1;" d="M 131.660156 135.796875 C 131.363281 135.203125 129.738281 134.929688 130.613281 136.40625 C 131.390625 137.703125 132.113281 138.472656 132.929688 138.816406 C 133.722656 139.144531 134.382812 138.609375 133.566406 137.769531 C 132.746094 136.929688 131.976562 136.433594 131.660156 135.796875 "/>
<path style=" stroke:none;fill-rule:nonzero;fill:rgb(85.882353%,9.803922%,12.941176%);fill-opacity:1;" d="M 121.410156 136.929688 C 121.488281 136.453125 122.113281 135.507812 122.613281 136.976562 C 122.996094 138.101562 122.746094 140.304688 122.523438 140.605469 C 122.292969 140.910156 121.46875 141.386719 121.410156 140.585938 C 121.332031 139.527344 121.289062 137.644531 121.410156 136.929688 "/>
<path style=" stroke:none;fill-rule:nonzero;fill:rgb(85.882353%,9.803922%,12.941176%);fill-opacity:1;" d="M 128.078125 129.257812 L 127.554688 129.851562 L 127.125 130.847656 L 126.535156 131.800781 L 125.785156 132.914062 L 124.925781 133.574219 L 123.992188 134.410156 L 123.019531 135.136719 L 122.273438 135.613281 L 122.113281 135.839844 L 122.5 135.929688 L 122.769531 136.046875 L 123.246094 135.683594 L 124.0625 135.160156 L 124.992188 134.660156 L 126.152344 134.09375 L 127.261719 133.480469 L 128.257812 132.914062 L 128.550781 132.4375 L 128.691406 132.664062 L 128.914062 132.867188 C 128.914062 132.867188 129.757812 133.390625 129.84375 133.480469 C 129.9375 133.574219 130.660156 133.84375 130.660156 133.84375 L 131.773438 134.707031 L 132.203125 134.886719 L 132.882812 135.410156 L 133.65625 135.683594 L 134.085938 135.75 L 134.472656 135.523438 L 134.402344 135.117188 L 133.859375 134.683594 L 132.5 133.980469 L 131.703125 133.277344 L 130.574219 132.324219 L 129.980469 131.824219 L 129.617188 131.164062 L 129.304688 130.371094 L 129.144531 129.78125 L 129.074219 129.144531 L 128.597656 128.964844 Z M 128.078125 129.257812 "/>
<path style=" stroke:none;fill-rule:nonzero;fill:rgb(85.882353%,9.803922%,12.941176%);fill-opacity:1;" d="M 128.394531 134.640625 L 127.917969 134.957031 L 127.710938 135.296875 L 127.511719 136 L 127.351562 136.542969 L 127.125 137.160156 L 126.917969 137.542969 L 126.691406 138.019531 L 126.445312 138.40625 L 126.035156 138.746094 L 125.785156 139.109375 L 125.46875 139.425781 C 125.46875 139.425781 125.355469 139.542969 125.0625 139.746094 C 124.769531 139.949219 124.632812 139.996094 124.632812 139.996094 L 124.15625 140.425781 L 123.746094 140.789062 L 123.453125 141.152344 L 123.339844 141.445312 L 123.519531 141.609375 L 123.882812 141.652344 L 124.585938 141.671875 L 125.421875 141.242188 L 126.195312 140.71875 L 127.285156 140.105469 L 128.394531 139.425781 L 128.800781 139.066406 L 128.964844 138.703125 L 129.414062 139.109375 L 129.820312 139.40625 L 130.390625 139.835938 L 130.910156 140.449219 L 131.59375 140.742188 L 132.320312 141.242188 L 132.996094 141.5625 L 133.566406 141.671875 L 133.90625 141.355469 L 133.703125 140.652344 L 132.722656 140.085938 L 131.386719 138.996094 L 130.277344 137.863281 L 129.460938 136.386719 L 128.667969 134.707031 Z M 128.394531 134.640625 "/>
<path style=" stroke:none;fill-rule:nonzero;fill:rgb(85.882353%,9.803922%,12.941176%);fill-opacity:1;" d="M 124.230469 143.722656 C 123.503906 143.996094 124.019531 145.300781 124.984375 145.480469 C 125.953125 145.664062 126.859375 145.480469 126.859375 145.480469 C 126.859375 145.480469 127.34375 146.570312 126.4375 147.78125 C 126.296875 147.96875 125.375 148.839844 126.042969 149.351562 C 126.707031 149.867188 127.527344 149.867188 127.734375 150.292969 C 127.949219 150.714844 128.101562 151.742188 127.34375 152.015625 C 126.589844 152.289062 125.289062 152.046875 124.652344 152.257812 C 124.019531 152.472656 124.046875 153.652344 125.042969 153.863281 C 126.042969 154.074219 132.085938 153.996094 132.578125 153.832031 C 134.117188 153.320312 133.332031 152.050781 132.605469 152.015625 C 131.878906 151.988281 131.003906 152.078125 130.636719 151.683594 C 130.277344 151.289062 130.09375 150.109375 130.335938 149.808594 C 130.582031 149.503906 131.730469 147.890625 129.308594 147.203125 C 127.707031 146.75 129.1875 145.75 129.402344 145.449219 C 129.609375 145.148438 132.636719 145.238281 133.359375 144.902344 C 134.085938 144.574219 133.90625 143.632812 132.757812 143.601562 C 131.609375 143.570312 124.230469 143.722656 124.230469 143.722656 "/>
<path style=" stroke:none;fill-rule:nonzero;fill:rgb(85.882353%,9.803922%,12.941176%);fill-opacity:1;" d="M 168.488281 138.390625 C 168.460938 138.402344 168.433594 138.414062 168.40625 138.429688 C 167.992188 138.65625 167.832031 139.089844 167.789062 139.546875 C 167.730469 140.128906 167.875 140.746094 167.785156 141.324219 C 167.707031 141.816406 167.542969 142.289062 167.464844 142.789062 L 165.832031 143.601562 C 165.832031 143.601562 164.386719 144.417969 164.382812 144.421875 C 163.789062 144.753906 162.816406 145.109375 162.695312 145.898438 C 162.523438 147.0625 164.273438 146.558594 164.835938 146.371094 C 165.015625 146.28125 165.230469 146.207031 165.390625 146.085938 C 165.59375 145.933594 165.703125 145.664062 165.933594 145.546875 C 166.0625 145.480469 167.328125 145.324219 167.332031 145.285156 L 167.285156 145.964844 L 167.152344 147.007812 C 166.582031 147.613281 165.9375 148.210938 165.441406 148.890625 C 165.238281 149.171875 164.894531 149.441406 164.75 149.757812 C 164.636719 150.003906 164.6875 150.292969 164.59375 150.554688 C 164.476562 150.859375 164.238281 151.078125 164.050781 151.335938 C 163.695312 151.835938 163.375 152.382812 163.039062 152.898438 C 162.683594 153.441406 162.417969 154.03125 163.105469 154.421875 C 163.449219 154.613281 163.734375 154.5625 164.089844 154.429688 C 164.363281 154.332031 164.585938 154.121094 164.863281 154.035156 C 165.296875 153.894531 165.605469 153.925781 165.964844 153.582031 C 166.402344 153.164062 166.738281 152.628906 167.152344 152.183594 C 167.003906 152.34375 167.40625 153.472656 167.425781 153.707031 C 167.460938 154.097656 167.433594 154.5 167.492188 154.890625 C 167.597656 155.578125 168.1875 156.222656 168.9375 155.921875 C 169.726562 155.605469 169.632812 154.621094 169.460938 153.953125 C 169.277344 153.246094 169.109375 152.597656 169.09375 151.859375 C 169.066406 150.667969 169.386719 149.054688 170.304688 148.207031 C 170.5 148.027344 170.652344 147.882812 170.769531 147.65625 C 170.960938 147.285156 171.089844 146.453125 170.527344 146.429688 C 170.164062 146.417969 169.832031 146.601562 169.507812 146.738281 C 169.5625 146.394531 169.46875 146.042969 169.472656 145.695312 C 169.480469 145.230469 169.53125 144.765625 169.675781 144.320312 C 169.773438 144.023438 169.945312 143.757812 170.179688 143.535156 C 170.394531 143.332031 170.761719 143.253906 170.96875 143.046875 C 171.292969 142.722656 171.125 142.476562 171.054688 142.109375 C 170.9375 142.109375 169.550781 142.210938 169.546875 142.140625 C 169.539062 141.796875 169.542969 141.445312 169.511719 141.101562 C 169.503906 140.976562 169.433594 140.808594 169.460938 140.6875 C 169.492188 140.539062 169.625 140.496094 169.683594 140.363281 C 169.855469 139.925781 169.738281 139.109375 169.511719 138.707031 C 169.285156 138.292969 168.886719 138.210938 168.488281 138.390625 "/>
<path style=" stroke:none;fill-rule:nonzero;fill:rgb(85.882353%,9.803922%,12.941176%);fill-opacity:1;" d="M 175.046875 139.21875 L 174.796875 139.398438 L 174.480469 139.625 L 174.503906 141.828125 L 174.390625 142.214844 L 173.914062 142.261719 L 173.507812 142.328125 L 172.894531 142.464844 C 172.894531 142.464844 172.710938 143.078125 172.757812 143.277344 C 172.804688 143.484375 172.464844 143.78125 173.167969 143.9375 C 173.867188 144.097656 174.027344 143.621094 174.277344 143.191406 C 174.527344 142.757812 174.734375 143.007812 174.75 143.257812 C 174.777344 143.507812 174.84375 143.734375 175.027344 143.710938 C 175.207031 143.6875 175.796875 143.894531 175.570312 143.484375 C 175.34375 143.078125 175.410156 142.78125 175.75 142.847656 C 175.933594 140.695312 175.933594 139.964844 175.84375 139.71875 C 175.75 139.464844 175.046875 139.21875 175.046875 139.21875 "/>
<path style=" stroke:none;fill-rule:nonzero;fill:rgb(85.882353%,9.803922%,12.941176%);fill-opacity:1;" d="M 181.539062 142.566406 C 180.988281 142.1875 180.257812 142.527344 179.675781 142.667969 L 178.675781 142.960938 L 177.429688 143.394531 L 177.222656 143.097656 L 177.523438 142.554688 C 177.523438 142.554688 178.160156 142.46875 178.175781 142.464844 C 178.382812 142.4375 178.628906 142.253906 178.832031 142.191406 C 179.144531 142.09375 179.46875 142.039062 179.78125 141.941406 C 180.308594 141.777344 181.644531 141.292969 181.328125 140.539062 C 181.039062 139.867188 180.066406 140.09375 179.570312 140.324219 C 179.238281 140.480469 179.03125 140.886719 178.8125 141.167969 C 178.8125 141.167969 178.359375 140.921875 178.359375 140.921875 C 178.136719 140.800781 178.929688 138.929688 178.980469 138.703125 C 179.023438 138.519531 179.1875 138.195312 179.144531 138.03125 C 179.085938 137.804688 178.75 137.613281 178.585938 137.46875 C 178.496094 137.523438 178.410156 137.574219 178.328125 137.621094 C 178.011719 137.800781 177.730469 137.960938 177.527344 138.3125 C 177.304688 138.710938 177.324219 139.054688 177.316406 139.496094 C 177.304688 140.078125 177.339844 140.492188 177.042969 140.988281 L 177 141.738281 L 176.703125 142.125 L 176.113281 142.871094 L 175.910156 143.507812 L 175.613281 143.667969 L 175.589844 143.894531 L 175.757812 143.96875 L 174.664062 144.347656 L 173.394531 144.753906 C 173.003906 144.964844 172.03125 145.316406 172.175781 145.898438 C 172.332031 146.539062 174.742188 144.847656 175.160156 144.753906 L 177.542969 144.234375 L 179.492188 143.621094 C 180.3125 143.546875 181.167969 143.535156 181.964844 143.328125 C 181.949219 142.925781 181.878906 142.800781 181.539062 142.566406 "/>
<path style=" stroke:none;fill-rule:nonzero;fill:rgb(85.882353%,9.803922%,12.941176%);fill-opacity:1;" d="M 178.539062 153.472656 C 179.628906 153.835938 183.03125 155.015625 180.582031 156.265625 C 179.84375 156.640625 179.242188 156.445312 178.132812 156.648438 C 177.101562 156.835938 177.5625 155.875 178.246094 155.648438 C 178.925781 155.425781 179.472656 154.832031 179.015625 154.699219 C 178 154.390625 177.769531 153.878906 178.042969 153.789062 C 178.453125 153.652344 178.4375 153.515625 178.539062 153.472656 "/>
<path style=" stroke:none;fill-rule:nonzero;fill:rgb(85.882353%,9.803922%,12.941176%);fill-opacity:1;" d="M 174.988281 145.210938 C 174.808594 145.324219 174.59375 145.382812 174.441406 145.539062 C 174.222656 145.773438 174.140625 146.011719 174.140625 146.300781 C 174.140625 146.582031 174.171875 146.894531 174.25 147.164062 C 174.339844 147.488281 174.539062 147.738281 174.359375 148.085938 C 174.199219 148.394531 173.835938 148.3125 173.914062 148.75 C 174.308594 148.910156 174.375 148.96875 174.761719 148.8125 C 174.832031 148.789062 175.871094 148.304688 175.863281 148.476562 L 175.84375 149 L 175.613281 149.570312 L 175.527344 150.90625 C 175.054688 151.351562 173.640625 152.28125 174.445312 152.976562 C 174.6875 153.1875 174.816406 153.039062 175.070312 152.929688 C 175.234375 152.855469 175.4375 152.808594 175.613281 152.769531 C 175.652344 152.761719 175.265625 154.492188 175.230469 154.628906 C 175.546875 154.777344 175.652344 154.972656 176.027344 155 C 176.300781 155.019531 176.535156 154.933594 176.726562 154.695312 C 177.140625 154.175781 177.226562 153.472656 177.4375 152.867188 C 177.535156 152.59375 177.613281 152.296875 177.886719 152.148438 C 178.191406 151.980469 178.589844 152.101562 178.917969 152.007812 C 179.097656 151.953125 179.328125 151.855469 179.5 151.765625 C 179.816406 151.601562 179.789062 151.355469 179.808594 150.976562 C 179.484375 150.9375 179.171875 150.867188 178.855469 150.9375 C 178.308594 151.0625 178.035156 151.082031 177.746094 150.566406 L 178.0625 150.160156 L 178.382812 149.726562 L 178.699219 149.386719 L 178.519531 149 L 178.132812 148.929688 L 177.585938 149.066406 C 177.585938 149.066406 177.273438 148.917969 177.253906 148.910156 C 177.128906 148.851562 176.992188 148.816406 176.863281 148.777344 C 177.160156 148.339844 177.519531 148.035156 178.007812 147.835938 C 178.195312 147.757812 178.488281 147.566406 178.710938 147.597656 C 178.960938 147.632812 179.011719 147.832031 179.3125 147.773438 C 179.378906 147.539062 179.492188 147.296875 179.222656 147.128906 C 179.109375 147.054688 177.761719 146.941406 177.769531 147.09375 C 177.738281 146.425781 178.21875 146.210938 178.609375 145.765625 C 178.785156 145.570312 178.917969 145.261719 179.128906 145.109375 C 179.335938 144.964844 179.703125 145.011719 179.710938 144.65625 C 179.71875 144.160156 179.039062 144.085938 178.734375 144.300781 C 178.367188 144.558594 178.214844 145.074219 177.9375 145.414062 C 177.527344 145.929688 176.855469 146.816406 176.179688 147.003906 C 176.039062 147.042969 175.761719 146.9375 175.613281 146.910156 C 175.523438 146.640625 175.425781 146.378906 175.363281 146.097656 C 175.300781 145.808594 175.453125 145.257812 175.148438 145.085938 C 175.097656 145.128906 175.042969 145.175781 174.988281 145.210938 "/>
<path style=" stroke:none;fill-rule:nonzero;fill:rgb(85.882353%,9.803922%,12.941176%);fill-opacity:1;" d="M 150.808594 138.609375 C 150.359375 138.664062 150.109375 138.960938 150.535156 139.632812 C 150.890625 140.1875 151.28125 140.652344 151.53125 141.273438 C 151.101562 141.628906 150.707031 141.574219 150.179688 141.71875 C 149.835938 141.8125 149.4375 142.09375 149.078125 141.914062 C 148.757812 141.753906 148.664062 141.195312 148.269531 141.59375 C 148.078125 141.785156 147.839844 142.066406 147.746094 142.320312 C 147.136719 143.953125 150.191406 143.707031 151.019531 143.519531 C 151.410156 143.433594 152.011719 143.285156 152.34375 143.058594 L 153.417969 142.324219 C 153.667969 142.203125 153.929688 142.035156 154.195312 141.957031 C 154.601562 141.835938 155.046875 141.933594 155.464844 141.929688 C 155.878906 141.925781 156.347656 141.855469 156.75 141.960938 C 157.242188 142.085938 157.453125 142.359375 157.4375 142.871094 C 157.425781 143.355469 157.097656 143.527344 156.699219 143.71875 C 156.460938 143.835938 156.207031 143.960938 155.960938 144.0625 C 155.332031 144.316406 154.378906 144.136719 153.703125 144.136719 C 152.917969 144.175781 151.449219 143.988281 150.921875 144.695312 C 150.695312 145 150.734375 144.976562 150.765625 145.359375 C 150.796875 145.699219 151.019531 146.007812 150.976562 146.355469 C 150.9375 146.695312 150.671875 146.945312 150.519531 147.238281 C 150.359375 147.550781 150.523438 147.875 150.511719 148.207031 C 150.496094 148.757812 150.210938 149.417969 149.851562 149.820312 C 149.367188 150.371094 147.945312 152.566406 149.257812 152.988281 C 149.601562 153.097656 149.90625 152.863281 150.183594 152.707031 C 150.601562 152.476562 151.140625 152.472656 151.589844 152.574219 C 151.410156 153.199219 150.910156 153.792969 150.558594 154.332031 C 150.273438 154.773438 150.285156 155.578125 150.984375 155.570312 C 151.632812 155.5625 151.894531 154.746094 152.082031 154.257812 C 152.285156 153.71875 152.515625 153.179688 152.796875 152.675781 C 152.949219 152.394531 153.125 152.152344 153.421875 152.011719 C 153.769531 151.847656 154.15625 151.925781 154.519531 151.84375 C 154.769531 151.785156 155.007812 151.660156 155.234375 151.539062 C 155.640625 151.316406 156.289062 150.984375 156.476562 150.527344 C 156.539062 150.378906 156.414062 150.023438 156.382812 149.855469 C 156.382812 149.855469 155.3125 149.726562 155.207031 149.695312 C 154.878906 149.59375 154.71875 149.429688 154.492188 149.183594 C 154.261719 148.921875 154.066406 149.007812 153.757812 148.9375 C 153.476562 148.871094 153.210938 148.566406 152.90625 148.722656 C 152.65625 148.851562 152.53125 149.3125 152.46875 149.566406 C 152.371094 149.957031 152.367188 150.371094 152.269531 150.761719 C 152.203125 151.027344 152.089844 151.414062 151.828125 151.550781 C 151.59375 151.675781 151.195312 151.671875 150.925781 151.710938 C 150.480469 151.78125 150.152344 151.949219 149.851562 151.539062 C 150.054688 151.027344 150.296875 150.589844 150.578125 150.117188 C 150.742188 149.839844 150.859375 149.648438 151.113281 149.441406 C 151.351562 149.246094 151.613281 149.277344 151.859375 149.125 C 152.65625 148.617188 151.785156 148.210938 151.578125 147.75 C 151.515625 147.605469 151.5 147.140625 151.53125 146.984375 C 151.648438 146.351562 153.109375 146.421875 152.472656 145.539062 C 152.269531 145.257812 151.953125 145.1875 152.164062 144.789062 C 152.210938 144.699219 153.117188 144.746094 153.261719 144.738281 L 154.808594 144.738281 C 155.71875 144.738281 156.628906 144.566406 157.46875 144.160156 C 157.769531 144.015625 158.164062 143.9375 158.367188 143.65625 C 158.5625 143.378906 158.589844 142.976562 158.570312 142.652344 C 158.546875 142.226562 158.433594 141.769531 158.199219 141.414062 C 157.882812 140.929688 157.492188 140.925781 156.972656 140.808594 C 156.417969 140.6875 155.917969 140.609375 155.351562 140.601562 C 155.046875 140.59375 154.78125 140.613281 154.488281 140.695312 C 154.328125 140.738281 154.332031 140.804688 154.195312 140.757812 C 154.082031 140.722656 153.894531 140.46875 153.84375 140.367188 C 153.738281 140.144531 153.871094 139.859375 153.730469 139.648438 C 153.605469 139.464844 153.300781 139.355469 153.109375 139.234375 C 152.9375 139.125 152.761719 138.988281 152.570312 138.929688 C 152.289062 138.839844 152 138.828125 151.71875 138.730469 C 151.410156 138.625 151.078125 138.574219 150.808594 138.609375 "/>
<path style=" stroke:none;fill-rule:nonzero;fill:rgb(85.882353%,9.803922%,12.941176%);fill-opacity:1;" d="M 154.648438 153.378906 C 154.554688 153.15625 155.449219 153.261719 155.515625 153.277344 C 155.777344 153.347656 156.046875 153.390625 156.3125 153.46875 C 156.757812 153.597656 157.523438 153.855469 157.4375 154.457031 C 157.335938 155.1875 156.398438 155.363281 155.785156 155.347656 C 155.535156 155.34375 155.285156 155.292969 155.109375 155.09375 C 154.886719 154.839844 154.953125 154.539062 154.933594 154.234375 C 154.914062 153.910156 154.769531 153.675781 154.648438 153.378906 "/>
<path style=" stroke:none;fill-rule:nonzero;fill:rgb(85.882353%,9.803922%,12.941176%);fill-opacity:1;" d="M 91.421875 143.664062 L 91.179688 143.90625 L 91.210938 144.601562 L 91.179688 145.753906 L 90.941406 146.601562 L 90.699219 148.144531 L 90.609375 149.082031 L 90.242188 149.929688 L 90.003906 150.355469 L 90.09375 151.261719 L 90.242188 151.472656 L 90.546875 151.5 L 90.878906 151.261719 L 91.210938 150.925781 L 91.484375 150.382812 L 91.726562 150.019531 L 91.910156 149.535156 L 91.996094 148.71875 L 92.238281 148.023438 L 92.300781 146.601562 L 92.390625 146.117188 L 92.300781 145.417969 L 92.121094 144.722656 L 91.933594 144 L 91.785156 143.664062 Z M 91.421875 143.664062 "/>
<path style=" stroke:none;fill-rule:nonzero;fill:rgb(85.882353%,9.803922%,12.941176%);fill-opacity:1;" d="M 92.632812 142.515625 L 92.542969 142.785156 L 92.726562 143.03125 L 93.148438 143.03125 L 93.691406 142.90625 L 94.175781 142.605469 L 95.109375 142.242188 L 96.378906 142.03125 L 96.808594 141.90625 L 97.347656 142.332031 L 97.589844 143 L 97.683594 146.933594 L 97.289062 148.75 L 96.921875 149.6875 L 96.320312 149.6875 L 96.050781 149.839844 L 96.5625 150.414062 L 96.808594 151.046875 L 97.226562 151.777344 L 97.621094 152.046875 L 98.011719 151.835938 L 98.4375 151.320312 L 98.710938 150.53125 L 98.859375 147.144531 L 99.015625 146.296875 L 98.738281 144.210938 L 98.4375 142.667969 L 97.894531 141.636719 L 96.898438 141.183594 L 96.289062 141.058594 L 95.292969 141.273438 L 94.113281 141.636719 L 93.234375 142.03125 Z M 92.632812 142.515625 "/>
<path style=" stroke:none;fill-rule:nonzero;fill:rgb(85.882353%,9.803922%,12.941176%);fill-opacity:1;" d="M 100.410156 144.261719 L 100.113281 144.695312 L 100.074219 145.511719 L 100.136719 147.121094 L 100.457031 147.871094 L 100.796875 148.371094 L 101.179688 148.300781 L 101.296875 147.894531 L 101.179688 147.191406 L 101.203125 146.464844 L 101.296875 145.261719 L 101.136719 144.601562 L 100.820312 144.351562 Z M 100.410156 144.261719 "/>
<path style=" stroke:none;fill-rule:nonzero;fill:rgb(85.882353%,9.803922%,12.941176%);fill-opacity:1;" d="M 102.839844 139.40625 L 102.429688 139.585938 L 102.113281 139.949219 L 102.066406 140.742188 L 102.246094 146.625 L 102.429688 149.371094 L 102.316406 151.070312 L 101.636719 151.980469 L 100.480469 152.160156 L 100.277344 152.75 L 100.796875 153.203125 L 101.816406 153.5 L 103.515625 152.707031 L 104.242188 151.59375 L 104.105469 150.210938 L 103.882812 143.851562 L 103.8125 141.515625 L 103.65625 139.5625 L 103.335938 139.339844 L 103.109375 139.269531 Z M 102.839844 139.40625 "/>
<path style=" stroke:none;fill-rule:nonzero;fill:rgb(85.882353%,9.803922%,12.941176%);fill-opacity:1;" d="M 95.421875 147.394531 L 95.035156 147.371094 L 95.035156 146.714844 L 95.015625 146.101562 L 95.238281 145.738281 L 95.445312 145.917969 L 95.535156 146.238281 L 95.558594 146.871094 Z M 94.015625 148.710938 L 93.652344 148.4375 L 93.652344 147.9375 L 93.585938 147.484375 L 93.699219 147.257812 L 93.902344 147.101562 L 94.015625 147.550781 L 94.128906 147.960938 L 94.015625 148.710938 M 96.808594 146.441406 L 96.214844 145.964844 L 96.238281 145.125 L 96.691406 144.261719 L 96.738281 143.332031 L 96.554688 142.96875 L 96.078125 142.582031 L 95.71875 142.898438 L 95.625 143.402344 L 95.445312 144.488281 L 95.195312 145.011719 L 94.855469 144.875 L 94.71875 144.195312 L 93.808594 144.195312 L 93.515625 144.898438 L 93.722656 145.304688 L 93.289062 145.804688 L 92.925781 146.28125 L 92.8125 147.621094 L 92.609375 148.371094 L 92.679688 149.027344 L 92.925781 149.460938 L 93.675781 149.527344 L 94.46875 149.304688 L 95.148438 148.640625 L 95.828125 147.984375 L 96.691406 147.710938 L 96.964844 147.167969 Z M 96.808594 146.441406 "/>
<path style=" stroke:none;fill-rule:nonzero;fill:rgb(85.882353%,9.803922%,12.941176%);fill-opacity:1;" d="M 72.519531 134.910156 L 73.132812 135.183594 L 73.949219 135.683594 L 74.398438 136.203125 L 74.398438 136.589844 L 74.128906 137.070312 L 73.765625 137.386719 L 73.039062 137.703125 L 72.472656 137.566406 L 72.519531 137.023438 L 72.519531 136.273438 L 72.3125 135.886719 L 72.359375 135.523438 L 72.453125 135.160156 Z M 72.519531 134.910156 "/>
<path style=" stroke:none;fill-rule:nonzero;fill:rgb(85.882353%,9.803922%,12.941176%);fill-opacity:1;" d="M 71.90625 138.585938 L 72.628906 138.542969 L 73.105469 138.703125 L 73.742188 138.996094 L 74.058594 139.542969 L 73.992188 139.878906 L 73.652344 140.519531 L 73.199219 140.789062 L 72.65625 140.585938 L 72.476562 139.949219 L 72.179688 139.585938 L 71.972656 139.152344 L 71.839844 138.859375 Z M 71.90625 138.585938 "/>
<path style=" stroke:none;fill-rule:nonzero;fill:rgb(85.882353%,9.803922%,12.941176%);fill-opacity:1;" d="M 72.972656 151.164062 L 72.453125 151.386719 L 71.382812 151.820312 L 70.546875 151.933594 L 69.703125 151.980469 L 69.183594 151.777344 L 68.777344 151.1875 L 68.777344 150.140625 L 69.09375 149.734375 L 69.773438 149.28125 L 70.386719 149.074219 L 70.90625 148.9375 L 71.316406 148.9375 L 71.496094 149.140625 L 71.382812 149.414062 L 71.023438 149.640625 L 70.839844 149.914062 L 70.679688 150.5 L 70.90625 150.777344 L 71.203125 151.027344 L 71.679688 150.863281 L 71.996094 150.640625 L 72.265625 150.296875 L 72.8125 150.097656 L 73.175781 150.320312 L 73.199219 150.707031 Z M 84.851562 150.820312 L 84.265625 150.210938 L 83.675781 150.117188 L 82.992188 149.914062 L 82.292969 149.460938 L 81.863281 148.847656 L 82.179688 148.4375 C 82.179688 148.4375 82.722656 147.46875 82.722656 147.460938 C 82.972656 147.019531 82.992188 146.003906 82.492188 145.738281 C 82.257812 145.613281 82.125 145.59375 81.855469 145.558594 C 81.613281 145.53125 81.488281 145.398438 81.269531 145.34375 C 80.953125 145.269531 80.53125 145.535156 80.183594 145.535156 C 80.128906 145.535156 79.957031 144.972656 79.945312 144.917969 C 79.863281 144.605469 79.851562 144.261719 79.949219 143.949219 C 80.042969 143.660156 80.253906 143.316406 80.480469 143.113281 C 80.722656 142.902344 81.070312 142.902344 81.3125 142.703125 C 81.667969 142.414062 81.828125 141.953125 82.023438 141.550781 C 82.242188 141.097656 82.53125 140.214844 82.21875 139.738281 C 82.078125 139.523438 81.472656 139.132812 81.207031 139.175781 C 80.824219 139.238281 80.457031 139.648438 80.136719 139.859375 C 79.667969 140.171875 79.261719 140.75 78.871094 141.15625 C 78.441406 141.605469 78.023438 142.0625 77.605469 142.519531 C 76.847656 143.339844 76.195312 144.183594 75.710938 145.191406 C 75.355469 145.921875 75.152344 146.714844 74.898438 147.480469 C 74.835938 147.675781 74.261719 149.464844 73.855469 148.722656 C 73.71875 148.46875 73.824219 148 73.746094 147.714844 C 73.546875 146.972656 72.664062 147.402344 72.3125 146.8125 C 72.1875 146.605469 72.011719 146.21875 72.019531 145.972656 C 72.039062 145.304688 72.457031 144.773438 72.800781 144.257812 C 73.121094 143.78125 73.648438 143.304688 73.882812 142.785156 C 74.183594 142.125 73.511719 141.738281 72.925781 141.683594 C 72.390625 141.632812 72.015625 142.265625 71.664062 142.570312 C 71.320312 142.871094 70.867188 143.011719 70.453125 143.195312 C 70.1875 143.242188 69.882812 143.347656 69.613281 143.335938 C 69.257812 143.320312 68.9375 143 68.570312 143.144531 C 68.191406 143.292969 68.027344 143.78125 68.003906 144.15625 C 67.941406 145.113281 69.113281 145.144531 69.792969 144.882812 C 70.324219 144.679688 70.753906 144.296875 71.292969 144.101562 L 71.429688 144.285156 L 71.453125 145.351562 C 71.453125 145.351562 71.390625 146.742188 71.382812 146.804688 C 71.375 147.058594 71.335938 147.515625 71.230469 147.738281 C 71.023438 148.179688 70.042969 148.304688 69.59375 148.410156 C 69.195312 148.503906 68.367188 148.585938 68.09375 148.914062 C 67.800781 149.257812 67.761719 149.984375 67.746094 150.410156 C 67.722656 151.003906 67.6875 151.347656 68.011719 151.855469 C 68.257812 152.234375 68.589844 152.664062 69.03125 152.820312 C 69.933594 153.144531 70.953125 152.570312 71.824219 152.378906 C 72.164062 152.304688 72.683594 152.308594 72.984375 152.148438 C 73.242188 152.015625 73.542969 151.570312 73.730469 151.339844 C 74.097656 150.886719 74.136719 150.382812 74.171875 149.824219 C 74.179688 149.734375 74.703125 149.277344 74.785156 149.136719 C 74.945312 148.851562 75.082031 148.542969 75.191406 148.234375 C 75.429688 147.558594 75.542969 146.835938 75.871094 146.195312 C 76.214844 145.53125 76.621094 144.871094 77.03125 144.246094 C 77.46875 143.578125 77.910156 143.148438 78.507812 142.625 C 79.121094 142.089844 79.753906 141.574219 80.410156 141.085938 C 80.585938 140.953125 80.433594 141.871094 80.320312 142.015625 C 79.941406 142.480469 79.320312 142.613281 78.949219 143.109375 C 78.492188 143.730469 78.300781 144.613281 78.300781 145.375 C 78.296875 145.898438 78.367188 146.824219 79.003906 146.984375 C 79.46875 147.09375 79.886719 146.628906 80.28125 146.457031 C 80.773438 146.25 81.28125 146.253906 81.722656 146.578125 C 81.898438 146.707031 81.304688 148.070312 81.222656 148.28125 C 81.222656 148.28125 80.726562 148.886719 80.726562 148.890625 C 80.804688 148.796875 79.011719 148.269531 78.863281 148.246094 C 78.679688 148.21875 78.265625 148.066406 78.09375 148.082031 C 77.6875 148.121094 77.667969 148.464844 77.910156 148.714844 C 78.199219 149.015625 78.671875 149.03125 79.023438 149.214844 C 79.382812 149.402344 79.746094 149.78125 79.800781 150.203125 C 79.90625 150.972656 79.195312 151.003906 78.765625 150.621094 C 78.488281 150.378906 78.269531 150.070312 77.863281 150.195312 C 77.480469 150.3125 77.238281 150.644531 77.480469 151.019531 C 77.726562 151.398438 78.296875 151.519531 78.703125 151.632812 C 79.097656 151.746094 79.582031 152.070312 79.988281 152.050781 C 80.570312 152.019531 80.78125 151.332031 80.976562 150.890625 L 81.722656 150.957031 L 82.203125 151.273438 L 82.269531 151.796875 L 81.683594 152.117188 L 81.296875 152.410156 L 81.382812 152.773438 L 81.90625 152.796875 L 83.289062 152.59375 L 84.492188 152.523438 L 84.785156 152.160156 L 85.105469 151.480469 L 84.851562 150.820312 "/>
<path style=" stroke:none;fill-rule:nonzero;fill:rgb(85.882353%,9.803922%,12.941176%);fill-opacity:1;" d="M 206.742188 70.882812 C 207.410156 71.820312 204.324219 74.96875 201.484375 73.605469 C 201.332031 72.667969 204.6875 73.089844 206.742188 70.882812 "/>
<path style=" stroke:none;fill-rule:nonzero;fill:rgb(85.882353%,9.803922%,12.941176%);fill-opacity:1;" d="M 199.335938 74.636719 C 197.007812 74.453125 190.6875 77.539062 190.78125 79.871094 C 192.835938 76.84375 198.214844 76.238281 199.335938 74.636719 "/>
<path style=" stroke:none;fill-rule:nonzero;fill:rgb(85.882353%,9.803922%,12.941176%);fill-opacity:1;" d="M 208.738281 72.304688 C 209.054688 73.066406 205.421875 77.324219 201.421875 77.417969 C 197.640625 77.507812 194.136719 78.75 190.867188 83.167969 C 190.175781 81.625 193.832031 77.78125 198.820312 76.570312 C 200.730469 76.109375 204.503906 76.269531 208.738281 72.304688 "/>
<path style=" stroke:none;fill-rule:nonzero;fill:rgb(85.882353%,9.803922%,12.941176%);fill-opacity:1;" d="M 209.140625 74.4375 C 209.898438 75.300781 207.167969 78.757812 204.199219 77.707031 C 203.949219 76.789062 207.332031 76.855469 209.140625 74.4375 "/>
<path style=" stroke:none;fill-rule:nonzero;fill:rgb(85.882353%,9.803922%,12.941176%);fill-opacity:1;" d="M 201.648438 78.796875 C 199.320312 78.613281 192.714844 80.898438 193.53125 83.773438 C 195.40625 80.414062 200.425781 80.777344 201.648438 78.796875 "/>
<path style=" stroke:none;fill-rule:nonzero;fill:rgb(85.882353%,9.803922%,12.941176%);fill-opacity:1;" d="M 156.914062 32.265625 C 158.027344 32.5625 157.28125 37.699219 154.222656 38.46875 C 153.507812 37.84375 156.746094 35.28125 156.914062 32.265625 "/>
<path style=" stroke:none;fill-rule:nonzero;fill:rgb(85.882353%,9.803922%,12.941176%);fill-opacity:1;" d="M 153.40625 39.351562 C 151.621094 41.132812 147.300781 48.03125 149.960938 51.027344 C 149.609375 47.386719 154.132812 40.890625 153.40625 39.351562 "/>
<path style=" stroke:none;fill-rule:nonzero;fill:rgb(85.882353%,9.803922%,12.941176%);fill-opacity:1;" d="M 159.9375 32.871094 C 160.453125 33.6875 159.902344 38.679688 156.886719 41.316406 C 154.03125 43.800781 153.226562 48.605469 152.863281 52.90625 C 151.34375 52.164062 151.28125 46.316406 154.34375 42.191406 C 155.515625 40.613281 158.429688 38.46875 159.9375 32.871094 "/>
<path style=" stroke:none;fill-rule:nonzero;fill:rgb(85.882353%,9.803922%,12.941176%);fill-opacity:1;" d="M 161.851562 34.273438 C 163.535156 34.414062 162.179688 40.195312 159.183594 41.164062 C 158.429688 40.585938 161.878906 37.289062 161.851562 34.273438 "/>
<path style=" stroke:none;fill-rule:nonzero;fill:rgb(85.882353%,9.803922%,12.941176%);fill-opacity:1;" d="M 158.207031 42.472656 C 156.402344 43.957031 154.257812 47.546875 155.3125 53.753906 C 156.429688 47.757812 158.210938 43.191406 158.207031 42.472656 "/>
<path style=" stroke:none;fill-rule:nonzero;fill:rgb(85.882353%,9.803922%,12.941176%);fill-opacity:1;" d="M 163.714844 39.316406 C 163.042969 39.09375 162.207031 39.558594 163.144531 40.375 C 164.082031 41.191406 164.71875 40.316406 164.019531 42.160156 C 163.320312 44.007812 161.722656 48.214844 161.539062 48.484375 C 161.359375 48.757812 161.417969 49.847656 159.757812 49.699219 C 158.09375 49.546875 157.730469 49.363281 157.429688 49.453125 C 157.128906 49.546875 156.3125 50 157.429688 50.484375 C 158.546875 50.96875 160.511719 51.664062 160.90625 51.90625 C 161.300781 52.148438 162.988281 53.210938 163.261719 53.449219 C 163.535156 53.691406 165.972656 54.394531 164.414062 52.542969 C 163.929688 51.96875 163.746094 51.753906 162.929688 51.515625 C 162.003906 51.238281 162.203125 50 162.628906 49.273438 C 163.054688 48.546875 164.988281 42.890625 165.378906 42.644531 C 165.773438 42.40625 164.820312 41.652344 166.832031 41.921875 C 167.285156 41.980469 167.464844 42.042969 167.738281 42.132812 C 168.339844 42.335938 169.730469 42.402344 168.34375 41.347656 C 166.621094 40.035156 163.898438 39.378906 163.714844 39.316406 "/>
<path style=" stroke:none;fill-rule:nonzero;fill:rgb(85.882353%,9.803922%,12.941176%);fill-opacity:1;" d="M 210.765625 76.894531 C 211.375 77.871094 208.113281 80.832031 205.355469 79.304688 C 205.261719 78.359375 208.582031 78.980469 210.765625 76.894531 "/>
<path style=" stroke:none;fill-rule:nonzero;fill:rgb(85.882353%,9.803922%,12.941176%);fill-opacity:1;" d="M 201.925781 82.316406 C 202.367188 83.382812 198.652344 85.753906 196.1875 83.785156 C 196.253906 82.835938 199.425781 84.007812 201.925781 82.316406 "/>
<path style=" stroke:none;fill-rule:nonzero;fill:rgb(85.882353%,9.803922%,12.941176%);fill-opacity:1;" d="M 200.910156 91.746094 C 199.953125 91.105469 201.722656 87.066406 204.863281 87.332031 C 205.335938 88.15625 202.050781 88.949219 200.910156 91.746094 "/>
<path style=" stroke:none;fill-rule:nonzero;fill:rgb(85.882353%,9.803922%,12.941176%);fill-opacity:1;" d="M 209.589844 86.449219 C 208.632812 85.820312 210.363281 81.765625 213.507812 82.003906 C 213.988281 82.820312 210.707031 83.644531 209.589844 86.449219 "/>
<path style=" stroke:none;fill-rule:nonzero;fill:rgb(85.882353%,9.803922%,12.941176%);fill-opacity:1;" d="M 211.609375 79.507812 C 210.96875 79.828125 208.414062 80.683594 207.371094 81.367188 C 204.796875 81.910156 202.421875 80.390625 202.15625 81.222656 C 203.335938 82.753906 205.355469 82.816406 206.707031 82.371094 C 206.246094 83.730469 206.179688 86.015625 206.109375 86.589844 C 205.867188 88.617188 206.925781 90.066406 206.867188 88.039062 C 206.773438 84.878906 208.378906 81.777344 211.277344 80.746094 C 213.960938 79.796875 212.304688 79.160156 211.609375 79.507812 "/>
<path style=" stroke:none;fill-rule:nonzero;fill:rgb(85.882353%,9.803922%,12.941176%);fill-opacity:1;" d="M 203.023438 84.476562 C 202.378906 84.796875 199.628906 85.601562 198.582031 86.285156 C 196.007812 86.824219 192.316406 84.578125 192.050781 85.40625 C 192.714844 87.34375 196.769531 87.785156 198.117188 87.34375 C 197.660156 88.703125 197.070312 91.222656 196.980469 91.792969 C 196.523438 94.546875 197.335938 95.367188 197.824219 93.398438 C 199.273438 87.558594 199.789062 86.746094 202.691406 85.714844 C 205.375 84.765625 203.714844 84.128906 203.023438 84.476562 "/>
<path style=" stroke:none;fill-rule:nonzero;fill:rgb(85.882353%,9.803922%,12.941176%);fill-opacity:1;" d="M 96.898438 37.609375 C 91.320312 38.152344 88.515625 40.441406 85.875 43.234375 C 85.613281 43.507812 84.152344 44.144531 84.285156 42.601562 C 84.605469 38.832031 94.898438 34.109375 98.890625 36.609375 C 98.183594 36.667969 100.613281 37.652344 96.898438 37.609375 "/>
<path style=" stroke:none;fill-rule:nonzero;fill:rgb(85.882353%,9.803922%,12.941176%);fill-opacity:1;" d="M 89.320312 35.292969 C 89.695312 36.570312 92.359375 44.007812 92.679688 46.914062 C 92.902344 51.855469 87.71875 56.429688 89.050781 57.125 C 92.589844 54.585938 93.492188 51.179688 94.269531 48.230469 C 96.449219 49.417969 98.8125 51.183594 99.753906 51.496094 C 104.292969 53.015625 104.859375 52.027344 101.65625 50.636719 C 92.160156 46.5 96.304688 46.867188 91.132812 35.792969 C 89.050781 31.316406 88.957031 34.035156 89.320312 35.292969 "/>
<path style=" stroke:none;fill-rule:nonzero;fill:rgb(85.882353%,9.803922%,12.941176%);fill-opacity:1;" d="M 43.355469 71.015625 C 42.777344 70.65625 41.464844 70.929688 43.167969 72.613281 C 42.898438 73.167969 42.574219 74.0625 42.449219 74.265625 C 42.128906 74.761719 42.511719 75.683594 43.015625 74.808594 C 43.492188 73.984375 43.9375 73.496094 44.238281 73.183594 C 44.789062 73.375 45.410156 73.734375 45.988281 74.152344 C 45.777344 74.722656 45.570312 75.695312 45.441406 75.898438 C 45.125 76.394531 45.457031 77.183594 45.964844 76.304688 C 46.460938 75.4375 46.722656 75.121094 46.90625 74.902344 C 47.5 75.453125 47.914062 76 47.914062 76.328125 C 47.914062 77.085938 47.550781 79.558594 49 76.554688 C 50.285156 73.902344 45.8125 72.5625 43.355469 71.015625 "/>
<path style=" stroke:none;fill-rule:nonzero;fill:rgb(85.882353%,9.803922%,12.941176%);fill-opacity:1;" d="M 42.789062 85.726562 C 42.566406 85.96875 41.859375 85.566406 41.292969 85.160156 C 41.375 84.886719 41.777344 84.355469 42.082031 83.402344 C 42.605469 81.753906 41.703125 82.648438 41.457031 83.183594 C 41.355469 83.40625 40.648438 84.105469 40.285156 84.589844 C 39.625 84.332031 38.984375 84 38.523438 83.644531 C 38.625 83.222656 38.828125 82.597656 39.226562 81.734375 C 40.25 79.507812 38.707031 81.015625 38.460938 81.554688 C 38.359375 81.769531 37.785156 82.527344 37.464844 83.054688 C 34.875 82.84375 35.238281 83.953125 36.226562 84.078125 C 39.136719 84.433594 42.855469 89.585938 43.9375 85.820312 C 44.796875 82.839844 43.242188 85.226562 42.789062 85.726562 "/>
<path style=" stroke:none;fill-rule:nonzero;fill:rgb(85.882353%,9.803922%,12.941176%);fill-opacity:1;" d="M 43.957031 75.335938 C 43.402344 76.042969 42.785156 76.488281 42.035156 76.742188 C 41.796875 75.433594 41.257812 74.359375 40.726562 74.601562 C 40.863281 75.4375 40.90625 76.261719 40.917969 77.019531 C 39.410156 77.4375 39.222656 78.9375 39.230469 79.167969 C 39.878906 78.75 40.449219 78.457031 40.925781 78.238281 C 40.921875 79.492188 40.929688 80.359375 41.355469 80.429688 C 42.011719 79.953125 42.210938 78.835938 42.148438 77.703125 C 43.476562 77.066406 44.230469 75.667969 43.957031 75.335938 "/>
<path style=" stroke:none;fill-rule:nonzero;fill:rgb(85.882353%,9.803922%,12.941176%);fill-opacity:1;" d="M 46.769531 77.742188 C 45.917969 78.171875 45.722656 78.625 44.972656 78.878906 C 44.710938 77.753906 44.074219 76.765625 43.542969 77.003906 C 43.679688 77.84375 43.726562 78.804688 43.742188 79.5625 C 42.230469 79.980469 41.328125 81.636719 42.429688 81.269531 C 43.074219 80.851562 43.289062 81.039062 43.769531 80.820312 C 44.082031 81.820312 43.890625 82.960938 44.320312 83.027344 C 44.972656 82.550781 45.140625 81.296875 45.078125 80.167969 C 46.40625 79.523438 47.046875 78.070312 46.769531 77.742188 "/>
<path style=" stroke:none;fill-rule:nonzero;fill:rgb(85.882353%,9.803922%,12.941176%);fill-opacity:1;" d="M 53.472656 93.421875 C 54.09375 94.113281 53.417969 94.734375 51.242188 93.421875 C 47.941406 91.433594 45.523438 90.40625 45.105469 87.644531 C 44.683594 84.871094 45.210938 83.132812 46.625 81.085938 C 48.042969 79.039062 48.671875 77.277344 50.980469 76.832031 C 54.527344 76.148438 58.605469 78.632812 60.421875 79.71875 C 61.863281 80.585938 61.207031 80.980469 60.472656 80.980469 C 58.953125 80.980469 54.257812 77.882812 52.738281 77.855469 C 51.1875 77.828125 49.984375 77.828125 48.121094 80.269531 C 46.261719 82.710938 46.101562 84.683594 46.050781 85.363281 C 45.992188 86.097656 45.683594 87.042969 46.996094 88.644531 C 48.304688 90.246094 49.144531 90.691406 50.820312 91.585938 C 52.503906 92.476562 53.238281 93.160156 53.472656 93.421875 "/>
<path style=" stroke:none;fill-rule:nonzero;fill:rgb(85.882353%,9.803922%,12.941176%);fill-opacity:1;" d="M 49.71875 88.878906 C 52.054688 88.644531 56.261719 85.210938 55.265625 80.949219 C 55.175781 80.582031 54.285156 79.351562 55.726562 80.402344 C 58.402344 82.609375 55.414062 91.140625 49.351562 89.40625 C 48.671875 89.089844 49.066406 88.773438 49.71875 88.878906 "/>
<path style=" stroke:none;fill-rule:nonzero;fill:rgb(85.882353%,9.803922%,12.941176%);fill-opacity:1;" d="M 52.394531 84.023438 C 52.929688 83.277344 55.597656 85.46875 56.222656 86.203125 C 56.855469 86.9375 58.324219 87.015625 58.847656 86.859375 C 59.371094 86.703125 59.714844 88.277344 57.039062 87.9375 C 56.378906 87.851562 54.371094 86.714844 53.078125 85.101562 C 52.871094 84.835938 52.265625 84.207031 52.394531 84.023438 "/>
<path style=" stroke:none;fill-rule:nonzero;fill:rgb(85.882353%,9.803922%,12.941176%);fill-opacity:1;" d="M 51.925781 82.789062 C 51.738281 84.902344 51.136719 85.023438 50.402344 85.496094 C 49.152344 86.300781 48.4375 85.496094 48.726562 84.3125 C 49.011719 83.132812 49.484375 82.5 49.773438 81.820312 C 50.167969 80.902344 52.160156 80.113281 51.925781 82.789062 M 48.75 81.109375 C 48.316406 81.640625 48.132812 81.917969 47.648438 83.816406 C 47.046875 86.175781 48.671875 87.070312 49.828125 86.859375 C 50.980469 86.648438 52.054688 86.363281 53.105469 83.238281 C 54.054688 80.40625 50.484375 79.011719 48.75 81.109375 "/>
<path style=" stroke:none;fill-rule:nonzero;fill:rgb(85.882353%,9.803922%,12.941176%);fill-opacity:1;" d="M 28.320312 130.421875 L 42.984375 129.457031 L 42.644531 124.246094 L 45.628906 124.050781 L 46.550781 138.046875 L 43.5625 138.242188 L 43.222656 133.035156 L 28.558594 134 Z M 28.320312 130.421875 "/>
<path style=" stroke:none;fill-rule:nonzero;fill:rgb(85.882353%,9.803922%,12.941176%);fill-opacity:1;" d="M 48.453125 145.769531 L 47.558594 141.992188 L 28.789062 139.507812 L 29.671875 143.246094 L 33.9375 143.71875 L 35.558594 150.554688 L 31.984375 152.980469 L 32.875 156.734375 Z M 37.09375 144.066406 L 43.988281 144.832031 L 38.207031 148.753906 Z M 37.09375 144.066406 "/>
<path style=" stroke:none;fill-rule:nonzero;fill:rgb(85.882353%,9.803922%,12.941176%);fill-opacity:1;" d="M 34.308594 160.652344 L 50.207031 152.890625 L 52.5625 157.722656 L 43.109375 165.875 L 55.320312 163.382812 L 57.683594 168.230469 L 41.785156 175.992188 L 40.332031 173.011719 L 52.835938 166.882812 L 38.804688 169.875 L 37.296875 166.777344 L 48.285156 157.539062 L 35.761719 163.628906 Z M 34.308594 160.652344 "/>
<path style=" stroke:none;fill-rule:nonzero;fill:rgb(85.882353%,9.803922%,12.941176%);fill-opacity:1;" d="M 44.988281 180.769531 L 58.828125 169.746094 L 61.058594 172.550781 L 54.957031 177.410156 L 65.542969 178.191406 L 68.53125 181.945312 L 59.035156 181 L 54.886719 193.21875 L 52.023438 189.621094 L 55.5 180.648438 L 51.40625 180.238281 L 47.222656 183.574219 Z M 44.988281 180.769531 "/>
<path style=" stroke:none;fill-rule:nonzero;fill:rgb(85.882353%,9.803922%,12.941176%);fill-opacity:1;" d="M 75.882812 188.011719 L 72.90625 185.519531 L 56.378906 194.765625 L 59.324219 197.230469 L 63.019531 195.058594 L 68.40625 199.566406 L 66.992188 203.652344 L 69.949219 206.125 Z M 65.761719 193.449219 L 71.742188 189.929688 L 69.453125 196.539062 Z M 65.761719 193.449219 "/>
<path style=" stroke:none;fill-rule:nonzero;fill:rgb(85.882353%,9.803922%,12.941176%);fill-opacity:1;" d="M 73.355469 208.226562 L 81.71875 192.625 L 84.777344 194.269531 L 85.554688 208.128906 L 91.148438 197.695312 L 94.066406 199.261719 L 85.699219 214.859375 L 82.550781 213.167969 L 81.742188 199.59375 L 76.269531 209.792969 Z M 73.355469 208.226562 "/>
<path style=" stroke:none;fill-rule:nonzero;fill:rgb(85.882353%,9.803922%,12.941176%);fill-opacity:1;" d="M 100.875 213.222656 L 101.703125 210.339844 L 109.066406 212.457031 L 107.121094 219.261719 C 106.199219 219.746094 104.988281 220.058594 103.472656 220.195312 C 101.957031 220.332031 100.503906 220.199219 99.109375 219.796875 C 97.335938 219.289062 95.894531 218.46875 94.789062 217.34375 C 93.683594 216.21875 93 214.859375 92.734375 213.28125 C 92.46875 211.699219 92.574219 210.085938 93.039062 208.453125 C 93.550781 206.675781 94.371094 205.207031 95.507812 204.039062 C 96.648438 202.871094 98.035156 202.125 99.671875 201.800781 C 100.921875 201.546875 102.359375 201.652344 103.980469 202.117188 C 106.085938 202.722656 107.605469 203.636719 108.535156 204.855469 C 109.46875 206.078125 109.878906 207.515625 109.777344 209.167969 L 106.1875 208.84375 C 106.1875 207.9375 105.925781 207.152344 105.40625 206.476562 C 104.886719 205.804688 104.132812 205.320312 103.144531 205.042969 C 101.648438 204.609375 100.320312 204.75 99.160156 205.449219 C 98 206.15625 97.152344 207.441406 96.613281 209.328125 C 96.03125 211.359375 96.042969 213.007812 96.648438 214.28125 C 97.253906 215.550781 98.28125 216.394531 99.738281 216.8125 C 100.453125 217.019531 101.214844 217.085938 102.023438 217.007812 C 102.824219 216.933594 103.542969 216.769531 104.179688 216.515625 L 104.800781 214.347656 Z M 100.875 213.222656 "/>
<path style=" stroke:none;fill-rule:nonzero;fill:rgb(85.882353%,9.803922%,12.941176%);fill-opacity:1;" d="M 119.085938 205.472656 L 122.667969 205.453125 L 122.71875 215.089844 C 122.726562 216.621094 122.773438 217.613281 122.863281 218.0625 C 123.019531 218.789062 123.386719 219.375 123.957031 219.8125 C 124.527344 220.25 125.304688 220.464844 126.296875 220.460938 C 127.296875 220.453125 128.054688 220.242188 128.5625 219.824219 C 129.070312 219.402344 129.375 218.890625 129.476562 218.28125 C 129.574219 217.675781 129.621094 216.667969 129.613281 215.261719 L 129.558594 205.417969 L 133.144531 205.398438 L 133.195312 214.707031 C 133.203125 216.832031 133.117188 218.335938 132.929688 219.214844 C 132.738281 220.097656 132.390625 220.839844 131.875 221.445312 C 131.363281 222.050781 130.671875 222.539062 129.808594 222.902344 C 128.945312 223.261719 127.816406 223.449219 126.417969 223.457031 C 124.738281 223.464844 123.460938 223.273438 122.585938 222.890625 C 121.710938 222.503906 121.023438 222 120.515625 221.378906 C 120.007812 220.757812 119.667969 220.101562 119.507812 219.417969 C 119.269531 218.40625 119.144531 216.90625 119.136719 214.921875 Z M 119.085938 205.472656 "/>
<path style=" stroke:none;fill-rule:nonzero;fill:rgb(85.882353%,9.803922%,12.941176%);fill-opacity:1;" d="M 139.007812 222.5 L 135.328125 205.179688 L 138.722656 204.460938 L 148.261719 214.542969 L 145.800781 202.953125 L 149.039062 202.261719 L 152.714844 219.582031 L 149.21875 220.328125 L 139.839844 210.484375 L 142.246094 221.8125 Z M 139.007812 222.5 "/>
<path style=" stroke:none;fill-rule:nonzero;fill:rgb(85.882353%,9.803922%,12.941176%);fill-opacity:1;" d="M 157.347656 217.875 L 151.285156 201.242188 L 154.648438 200.011719 L 160.714844 216.644531 Z M 157.347656 217.875 "/>
<path style=" stroke:none;fill-rule:nonzero;fill:rgb(85.882353%,9.803922%,12.941176%);fill-opacity:1;" d="M 168.929688 213.023438 L 155.246094 200.210938 L 158.671875 198.417969 L 168.65625 207.996094 L 166.386719 194.378906 L 169.753906 192.613281 L 172.429688 211.191406 Z M 168.929688 213.023438 "/>
<path style=" stroke:none;fill-rule:nonzero;fill:rgb(85.882353%,9.803922%,12.941176%);fill-opacity:1;" d="M 181.003906 206.125 L 170.035156 192.238281 L 180.320312 184.101562 L 182.175781 186.453125 L 174.707031 192.363281 L 177.125 195.425781 L 184.0625 189.941406 L 185.917969 192.289062 L 178.976562 197.777344 L 181.960938 201.550781 L 189.683594 195.445312 L 191.539062 197.792969 Z M 181.003906 206.125 "/>
<path style=" stroke:none;fill-rule:nonzero;fill:rgb(85.882353%,9.803922%,12.941176%);fill-opacity:1;" d="M 197.453125 191.625 L 191.835938 186.816406 L 192.308594 186.265625 C 192.84375 185.640625 193.285156 185.226562 193.632812 185.023438 C 193.976562 184.820312 194.398438 184.703125 194.890625 184.679688 C 195.382812 184.652344 196.449219 184.738281 198.089844 184.929688 L 202.703125 185.484375 L 205.445312 182.277344 L 201.421875 181.671875 C 199.824219 181.417969 198.664062 181.300781 197.929688 181.328125 C 197.195312 181.355469 196.410156 181.511719 195.570312 181.800781 C 196.394531 180.488281 196.730469 179.261719 196.574219 178.113281 C 196.414062 176.96875 195.832031 175.960938 194.824219 175.097656 C 194.03125 174.417969 193.160156 174.011719 192.207031 173.871094 C 191.257812 173.734375 190.382812 173.886719 189.589844 174.328125 C 188.792969 174.773438 187.78125 175.710938 186.558594 177.144531 L 181.683594 182.84375 L 195.125 194.351562 Z M 186.289062 182.0625 L 188.089844 179.960938 C 189.019531 178.867188 189.597656 178.222656 189.8125 178.03125 C 190.265625 177.65625 190.730469 177.472656 191.210938 177.46875 C 191.695312 177.464844 192.164062 177.65625 192.617188 178.046875 C 193.019531 178.390625 193.277344 178.769531 193.390625 179.183594 C 193.503906 179.597656 193.480469 180.011719 193.3125 180.425781 C 193.148438 180.84375 192.511719 181.699219 191.40625 182.992188 L 189.703125 184.988281 L 186.289062 182.0625 "/>
<path style=" stroke:none;fill-rule:nonzero;fill:rgb(85.882353%,9.803922%,12.941176%);fill-opacity:1;" d="M 202.039062 176.984375 L 203.472656 173.78125 C 204.570312 174.160156 205.507812 174.199219 206.28125 173.90625 C 207.058594 173.613281 207.710938 172.996094 208.242188 172.050781 C 208.804688 171.050781 209.015625 170.179688 208.882812 169.441406 C 208.75 168.699219 208.402344 168.171875 207.84375 167.855469 C 207.484375 167.652344 207.117188 167.589844 206.75 167.660156 C 206.378906 167.730469 205.949219 167.980469 205.464844 168.40625 C 205.132812 168.695312 204.441406 169.394531 203.386719 170.503906 C 202.035156 171.925781 200.867188 172.800781 199.886719 173.132812 C 198.503906 173.59375 197.203125 173.480469 195.976562 172.792969 C 195.1875 172.351562 194.574219 171.710938 194.140625 170.882812 C 193.703125 170.050781 193.539062 169.117188 193.652344 168.078125 C 193.757812 167.039062 194.148438 165.929688 194.808594 164.746094 C 195.898438 162.816406 197.132812 161.597656 198.53125 161.101562 C 199.925781 160.601562 201.34375 160.726562 202.789062 161.46875 L 201.152344 164.664062 C 200.289062 164.355469 199.566406 164.320312 198.972656 164.5625 C 198.386719 164.804688 197.847656 165.363281 197.355469 166.234375 C 196.851562 167.132812 196.640625 167.945312 196.726562 168.664062 C 196.78125 169.125 197.003906 169.46875 197.40625 169.691406 C 197.769531 169.894531 198.167969 169.917969 198.601562 169.753906 C 199.148438 169.550781 200.03125 168.792969 201.242188 167.484375 C 202.453125 166.179688 203.453125 165.269531 204.242188 164.761719 C 205.03125 164.253906 205.875 163.980469 206.769531 163.945312 C 207.660156 163.910156 208.59375 164.164062 209.570312 164.714844 C 210.457031 165.210938 211.144531 165.925781 211.640625 166.847656 C 212.136719 167.773438 212.324219 168.792969 212.195312 169.902344 C 212.066406 171.011719 211.625 172.234375 210.871094 173.574219 C 209.777344 175.527344 208.488281 176.773438 207.007812 177.3125 C 205.523438 177.855469 203.867188 177.742188 202.039062 176.984375 "/>
<path style=" stroke:none;fill-rule:nonzero;fill:rgb(85.882353%,9.803922%,12.941176%);fill-opacity:1;" d="M 215.503906 163.421875 L 199.074219 156.863281 L 200.402344 153.53125 L 216.832031 160.089844 Z M 215.503906 163.421875 "/>
<path style=" stroke:none;fill-rule:nonzero;fill:rgb(85.882353%,9.803922%,12.941176%);fill-opacity:1;" d="M 219.472656 152.007812 L 205.257812 148.296875 L 203.9375 153.351562 L 201.042969 152.59375 L 204.578125 139.019531 L 207.476562 139.777344 L 206.160156 144.828125 L 220.378906 148.539062 Z M 219.472656 152.007812 "/>
<path style=" stroke:none;fill-rule:nonzero;fill:rgb(85.882353%,9.803922%,12.941176%);fill-opacity:1;" d="M 222.644531 134.933594 L 215.226562 134.359375 L 204.511719 140.023438 L 204.835938 135.800781 L 212.128906 132.226562 L 205.46875 127.636719 L 205.78125 123.546875 L 215.519531 130.785156 L 222.917969 131.359375 Z M 222.644531 134.933594 "/>
</g>
</svg>
