<?xml version="1.0" standalone="no"?>
<!DOCTYPE svg PUBLIC "-//W3C//DTD SVG 20010904//EN"
 "http://www.w3.org/TR/2001/REC-SVG-20010904/DTD/svg10.dtd">
<svg version="1.0" xmlns="http://www.w3.org/2000/svg"
 width="672.000000pt" height="672.000000pt" viewBox="0 0 672.000000 672.000000"
 preserveAspectRatio="xMidYMid meet">
<metadata>
Created by potrace 1.11, written by Peter Selinger 2001-2013
</metadata>
<g transform="translate(0.000000,672.000000) scale(0.100000,-0.100000)"
fill="#000000" stroke="none">
<path d="M3217 6694 c-1 -1 -47 -4 -102 -8 -55 -3 -113 -8 -130 -10 -16 -2
-55 -7 -85 -10 -30 -4 -64 -8 -75 -10 -11 -2 -45 -8 -75 -12 -30 -4 -57 -9
-60 -9 -3 -1 -23 -5 -45 -9 -22 -4 -55 -12 -72 -18 -36 -10 -35 -8 -12 -98 18
-70 15 -76 -53 -95 -35 -10 -68 -19 -73 -21 -6 -1 -52 -16 -104 -34 -51 -17
-94 -30 -95 -28 -2 2 -17 40 -35 85 l-33 82 -41 -16 c-70 -26 -344 -161 -413
-203 -36 -22 -68 -40 -70 -40 -3 0 -10 -4 -17 -10 -7 -5 -53 -37 -103 -70
-133 -88 -130 -83 -83 -154 21 -32 39 -61 39 -65 0 -4 -19 -22 -42 -39 -44
-32 -62 -48 -182 -155 -38 -34 -72 -62 -76 -62 -5 0 -34 24 -65 54 l-57 55
-82 -86 c-142 -150 -213 -231 -312 -358 -71 -90 -184 -252 -184 -263 0 -12 18
-28 78 -66 28 -18 52 -37 52 -42 0 -5 -11 -27 -25 -50 -14 -22 -48 -86 -76
-142 -28 -56 -54 -106 -59 -111 -6 -6 -18 -5 -32 1 -36 17 -126 53 -133 53
-14 0 -96 -206 -147 -370 -34 -112 -84 -308 -92 -365 -4 -22 -9 -52 -12 -68
-6 -28 -1 -33 46 -41 102 -17 109 -23 99 -88 -8 -49 -20 -210 -22 -290 -1 -42
7 -38 -102 -42 l-50 -1 1 -180 c1 -99 4 -211 8 -250 4 -38 9 -92 11 -119 6
-69 22 -188 32 -231 2 -11 9 -46 15 -79 l11 -58 36 6 c20 3 50 9 66 12 68 14
64 18 100 -106 19 -63 41 -135 49 -159 18 -49 20 -71 7 -71 -5 0 -39 -13 -75
-30 l-66 -29 35 -98 c44 -121 146 -329 219 -447 31 -48 56 -92 56 -97 0 -5 5
-9 10 -9 6 0 10 -4 10 -10 0 -7 52 -83 75 -108 1 -1 33 16 70 39 37 22 71 37
75 32 4 -4 31 -37 59 -72 28 -35 70 -85 93 -110 24 -26 55 -62 70 -80 l28 -32
-23 -22 c-12 -13 -37 -39 -55 -59 l-34 -36 74 -70 c89 -86 103 -99 248 -221
124 -104 215 -173 325 -245 l69 -45 46 69 c25 38 47 70 50 70 3 0 50 -24 104
-54 54 -30 123 -65 152 -78 30 -13 54 -27 54 -31 0 -4 -13 -40 -30 -79 -16
-38 -30 -72 -30 -74 0 -15 316 -143 420 -170 8 -2 55 -15 105 -29 49 -13 107
-27 129 -31 23 -3 43 -7 47 -10 3 -2 21 -6 40 -8 19 -3 48 -8 66 -11 31 -7 32
-6 38 31 21 127 17 119 55 118 19 -1 58 -5 85 -8 80 -11 155 -17 225 -20 42
-1 65 -6 66 -14 1 -7 2 -42 3 -78 l1 -67 193 6 c105 3 203 8 217 11 25 4 138
17 196 21 18 2 65 9 105 15 41 7 83 14 94 16 11 1 21 3 23 4 4 4 22 7 45 9 47
3 50 12 29 94 -19 79 -16 97 19 97 9 0 79 20 155 45 76 25 142 45 145 45 3 0
16 -26 28 -57 12 -32 29 -68 37 -80 l14 -22 67 25 c187 69 617 306 676 372 17
19 17 21 -24 86 -23 37 -38 71 -33 75 5 4 47 36 94 71 47 35 87 66 90 69 3 4
31 28 63 55 l58 49 60 -59 60 -59 82 85 c98 101 228 252 319 370 68 89 165
230 174 254 3 9 -19 29 -63 57 l-69 44 82 161 82 162 72 -29 c39 -16 77 -29
84 -29 35 0 159 321 222 575 26 106 45 254 33 256 -11 2 -11 2 -87 18 -57 13
-63 16 -58 35 3 12 8 50 12 86 3 36 8 68 10 71 2 3 6 52 9 110 4 57 8 105 9
106 1 2 36 4 77 7 41 2 77 4 80 5 13 2 -17 492 -36 592 -3 14 -13 88 -20 146
-3 17 -13 65 -20 93 -1 3 -5 22 -9 43 -9 42 -11 43 -101 22 -70 -17 -85 -14
-85 13 0 9 -22 84 -49 165 l-49 148 53 24 c29 12 63 26 75 30 18 6 20 12 15
33 -37 146 -274 608 -371 720 -25 30 -33 28 -106 -17 l-62 -40 -19 32 c-20 32
-143 194 -162 212 -5 6 -22 24 -37 40 l-27 30 50 54 50 54 -43 45 c-93 97
-137 140 -208 202 -41 36 -81 71 -88 78 -33 30 -182 140 -270 198 -109 72 -99
74 -161 -23 -18 -29 -34 -53 -36 -53 -1 0 -29 16 -61 35 -33 20 -104 59 -160
87 l-101 52 34 74 c18 41 32 76 31 78 -10 10 -207 97 -278 122 -92 34 -235 77
-325 97 -39 9 -137 27 -170 31 -22 3 -45 6 -52 9 -12 4 -39 -89 -42 -144 -1
-9 -10 -12 -33 -7 -83 14 -204 24 -329 25 -41 1 -46 4 -46 24 -1 12 -1 48 -2
80 l-1 58 -121 -3 c-66 -1 -121 -3 -122 -4z m204 -72 c8 -79 7 -79 -84 -80
-90 0 -287 -11 -296 -17 -3 -2 -6 -46 -5 -99 0 -53 -2 -96 -5 -97 -3 0 -14 -2
-23 -4 -23 -4 -99 -16 -123 -19 -59 -8 -125 -19 -160 -28 -22 -6 -47 -11 -55
-13 -63 -12 -287 -82 -305 -95 -5 -4 -22 -10 -36 -14 -22 -5 -28 -2 -34 17 -4
12 -8 24 -10 27 -8 19 -16 39 -24 62 -10 26 -8 28 42 46 66 25 241 79 285 87
37 8 36 5 14 105 -3 14 -5 36 -6 49 -1 26 6 29 99 45 17 3 41 8 54 10 12 3 44
8 70 11 25 3 60 7 76 10 68 11 105 14 210 21 61 3 111 7 112 8 1 0 46 2 101 3
l100 3 3 -38z m639 -43 c85 -16 235 -57 340 -94 95 -33 238 -92 254 -106 4 -4
-26 -77 -68 -164 -42 -86 -76 -158 -76 -160 0 -1 52 -29 115 -60 180 -89 357
-197 528 -323 l88 -65 67 66 c37 37 73 67 80 67 18 0 311 -294 382 -384 34
-44 84 -112 111 -152 l49 -73 72 45 73 44 18 -22 c91 -116 342 -618 319 -639
-4 -4 -78 -37 -164 -74 -130 -56 -156 -71 -149 -84 11 -20 61 -166 72 -206 4
-16 14 -55 22 -85 19 -70 55 -234 61 -281 7 -49 18 -158 20 -194 1 -29 4 -30
46 -30 25 0 69 2 98 5 33 4 52 2 53 -4 0 -6 2 -20 5 -31 16 -79 22 -329 10
-450 -3 -33 -8 -87 -11 -120 -3 -33 -8 -72 -10 -85 -6 -29 -15 -87 -18 -114
-2 -21 19 -29 95 -40 23 -3 46 -10 52 -16 7 -7 -3 -100 -18 -155 -1 -5 -6 -26
-10 -45 -30 -141 -165 -510 -185 -510 -4 0 -78 29 -165 65 -87 36 -161 65
-165 65 -4 0 -21 -30 -39 -67 -86 -183 -236 -424 -339 -547 -32 -38 -62 -75
-68 -82 -7 -10 8 -31 59 -83 l69 -70 -60 -68 c-57 -63 -181 -186 -265 -260
-43 -38 -237 -186 -262 -200 -17 -9 -15 -16 24 -83 l43 -73 -23 -19 c-94 -76
-575 -328 -627 -328 -6 0 -36 62 -68 138 -32 75 -63 148 -70 162 l-13 26 -144
-47 c-125 -42 -269 -82 -333 -93 -46 -8 -136 -22 -202 -30 -101 -14 -128 -18
-134 -21 -5 -4 -4 -45 5 -137 2 -21 -2 -42 -8 -46 -30 -23 -496 -22 -661 2
-162 23 -170 24 -170 11 -1 -20 -16 -110 -21 -128 -6 -20 -10 -19 -183 19 -92
21 -182 48 -356 108 -62 21 -175 75 -175 83 0 5 30 78 66 162 36 84 64 154 62
156 -2 1 -32 18 -68 37 -140 76 -178 97 -245 138 -144 88 -262 165 -322 212
-35 26 -67 48 -71 48 -5 0 -38 -29 -74 -64 l-65 -64 -34 30 c-80 69 -222 213
-334 339 -42 47 -165 200 -174 217 -7 12 -22 6 -80 -28 -39 -23 -73 -41 -74
-39 -21 29 -134 211 -164 264 -81 146 -178 367 -170 390 3 6 47 29 98 50 52
21 117 49 146 62 28 12 57 23 62 23 15 0 14 7 -15 91 -37 106 -105 355 -109
394 0 6 -4 30 -9 55 -5 25 -10 54 -12 65 -2 11 -6 31 -9 45 -6 29 -16 117 -16
142 0 25 -5 26 -107 29 -67 2 -93 7 -97 17 -6 17 2 505 10 577 11 102 13 121
20 171 l7 51 -33 8 c-19 4 -38 9 -44 10 -13 4 -58 13 -68 14 -7 1 -5 34 8 101
2 8 11 47 20 85 9 39 18 77 20 85 2 8 4 15 5 15 1 0 3 9 5 20 5 23 82 257 98
295 6 14 11 27 12 30 9 36 32 80 41 80 11 0 85 -28 159 -60 22 -9 58 -24 80
-31 22 -8 51 -19 65 -26 13 -7 25 -11 26 -10 1 1 26 47 55 102 64 122 122 219
208 348 36 54 71 106 76 115 6 9 31 45 57 79 l48 62 -44 48 c-25 26 -54 59
-65 72 l-21 25 32 35 c120 128 346 339 438 409 19 15 49 39 65 55 17 15 38 30
48 33 23 7 22 23 -6 64 -13 19 -32 47 -41 62 l-17 27 88 58 c110 72 111 72
208 129 85 49 306 158 341 168 18 6 25 -7 68 -116 75 -196 88 -228 91 -228 1
0 27 11 56 23 121 53 355 122 479 142 19 3 53 8 75 11 22 4 78 12 125 18 l85
12 1 89 c1 50 2 95 3 100 2 17 316 24 516 11 125 -8 177 -13 243 -26 55 -10
56 -9 72 74 7 34 14 64 16 68 4 7 19 5 114 -13z m886 -517 c28 -18 55 -32 60
-32 5 1 27 30 49 65 22 36 45 65 50 65 24 0 294 -196 398 -289 78 -70 237
-229 237 -238 0 -5 -15 -24 -34 -42 l-34 -33 -60 58 c-63 62 -119 115 -188
177 l-41 37 -73 -70 c-39 -39 -73 -70 -75 -70 -2 0 -54 36 -116 79 -137 96
-339 218 -443 267 -42 20 -79 40 -81 45 -3 4 9 37 27 73 l32 65 120 -63 c67
-34 144 -77 172 -94z m-3839 -371 l41 -38 -125 -128 c-68 -71 -128 -135 -133
-144 -6 -12 8 -33 56 -84 41 -42 62 -72 57 -80 -4 -7 -34 -50 -67 -97 -83
-119 -214 -329 -270 -433 -53 -97 -46 -94 -132 -56 -24 11 -44 23 -44 27 0 11
102 210 132 258 54 86 55 78 -20 125 -37 23 -69 43 -71 45 -7 6 172 261 199
284 3 3 16 18 28 34 60 79 290 326 302 326 4 0 25 -17 47 -39z m5204 -1272
c15 -29 73 -209 90 -279 7 -30 15 -58 19 -62 3 -4 40 1 83 11 79 19 85 18 93
-21 10 -51 16 -84 18 -103 2 -11 6 -38 9 -60 9 -59 15 -103 22 -170 4 -33 8
-76 10 -95 5 -39 17 -271 17 -310 0 -58 1 -57 -60 -59 l-57 -2 -3 98 c-4 112
-6 148 -16 218 -4 28 -7 55 -7 60 -1 34 -24 36 -161 20 -31 -4 -38 -1 -39 13
-2 61 -17 166 -44 305 -12 61 -65 256 -89 326 -14 41 -25 75 -23 77 4 4 112
52 119 53 4 1 12 -9 19 -20z m-6160 -1106 c0 -135 6 -237 14 -262 4 -14 18
-17 83 -16 92 1 115 -5 117 -31 2 -27 16 -112 22 -137 2 -12 5 -29 5 -37 0 -8
7 -44 15 -80 8 -36 17 -78 20 -94 2 -15 22 -87 44 -160 22 -72 41 -136 42
-143 2 -7 6 -16 10 -19 14 -15 5 -22 -58 -50 -39 -16 -69 -24 -74 -18 -8 8
-46 119 -56 164 -2 8 -10 34 -19 58 -8 23 -15 43 -15 45 0 1 -3 21 -7 45 -6
39 -14 48 -39 42 -26 -5 -45 -9 -78 -14 -20 -3 -42 -7 -48 -8 -14 -3 -29 50
-44 162 -3 25 -8 56 -10 70 -2 14 -7 57 -11 95 -3 39 -8 88 -10 110 -2 22 -7
119 -10 215 l-6 175 56 3 56 2 1 -117z m6004 -1247 l55 -25 -50 -103 c-28 -57
-69 -133 -90 -170 -22 -36 -40 -69 -40 -71 0 -3 29 -24 65 -47 36 -23 65 -48
65 -54 0 -7 -28 -52 -62 -100 -35 -49 -70 -98 -78 -110 -19 -28 -91 -118 -104
-131 -6 -5 -33 -37 -61 -70 -48 -58 -87 -101 -171 -189 l-41 -43 -47 43 -47
43 68 68 c67 67 154 166 180 203 12 16 6 25 -52 85 -36 36 -65 70 -65 74 0 4
9 16 21 27 65 58 249 347 339 532 17 34 37 62 45 62 8 0 39 -11 70 -24z
m-5021 -1019 c58 -57 123 -116 146 -132 l41 -29 66 66 65 65 75 -53 c85 -61
310 -200 454 -281 55 -30 99 -59 99 -64 0 -4 -11 -33 -24 -64 -23 -51 -27 -54
-49 -46 -46 18 -212 104 -265 137 l-52 34 -46 -70 c-26 -39 -50 -70 -54 -70
-15 0 -297 206 -341 249 -8 9 -35 32 -59 51 -84 68 -240 215 -240 226 0 6 70
82 77 84 1 0 49 -46 107 -103z m3272 -563 c14 -31 23 -62 20 -69 -3 -9 -86
-42 -126 -50 -3 -1 -43 -13 -90 -27 -47 -14 -97 -29 -112 -32 -31 -7 -31 -18
-8 -120 6 -27 9 -50 7 -52 -7 -8 -150 -33 -267 -48 -182 -23 -208 -25 -391
-32 l-167 -7 -4 47 c-2 26 -1 52 3 57 3 6 62 12 130 14 136 4 247 13 259 20 4
2 5 47 3 98 l-4 94 98 12 c196 25 337 58 538 126 39 13 74 24 78 25 4 0 19
-25 33 -56z"/>
<path d="M3338 6165 c-2 -2 -68 -6 -148 -9 -80 -3 -154 -8 -165 -10 -33 -6
-118 -18 -151 -21 -42 -5 -254 -53 -312 -71 -26 -8 -57 -17 -69 -20 -102 -21
-453 -179 -607 -273 -272 -165 -568 -422 -736 -641 -19 -25 -37 -47 -40 -50
-17 -15 -135 -188 -181 -265 -52 -87 -147 -271 -187 -365 -50 -117 -137 -385
-147 -454 -4 -30 -6 -41 -19 -96 -9 -37 -15 -79 -22 -135 -3 -27 -7 -56 -9
-63 -7 -21 -19 -231 -18 -337 0 -105 11 -307 18 -328 2 -6 6 -34 9 -62 18
-155 92 -452 145 -580 5 -11 25 -60 46 -110 66 -161 233 -461 305 -548 6 -7
36 -46 67 -87 143 -186 343 -384 528 -521 33 -24 62 -46 65 -49 6 -8 146 -97
208 -133 185 -108 457 -225 640 -273 28 -8 78 -21 110 -29 49 -13 208 -42 322
-59 149 -22 529 -23 660 -2 14 2 46 7 71 10 93 13 139 22 249 47 86 20 307 86
325 98 6 3 12 6 15 7 28 5 250 105 319 143 41 23 75 41 77 41 9 0 210 132 279
183 409 303 706 679 924 1169 12 26 21 50 21 53 0 4 6 21 14 38 45 100 122
380 142 517 3 19 7 46 10 60 5 30 11 73 20 155 9 81 10 424 1 505 -15 144 -18
167 -28 225 -6 33 -13 71 -15 85 -22 122 -101 380 -161 525 -40 98 -163 338
-175 343 -5 2 -8 8 -8 13 0 23 -200 304 -278 393 -327 367 -711 636 -1134 794
-109 41 -256 88 -298 96 -14 2 -52 11 -85 19 -33 9 -76 18 -95 21 -19 3 -44 8
-55 10 -12 2 -48 7 -80 11 -33 4 -73 9 -90 11 -16 2 -79 6 -140 9 -60 4 -115
8 -122 10 -6 2 -13 2 -15 0z m161 -89 c155 -10 297 -31 473 -71 259 -58 603
-208 843 -368 188 -125 273 -195 440 -362 203 -203 367 -427 494 -678 99 -194
205 -485 236 -645 5 -29 12 -65 19 -97 2 -11 7 -40 11 -65 4 -25 9 -54 11 -64
18 -98 25 -535 11 -641 -4 -27 -10 -68 -13 -90 -4 -35 -15 -99 -31 -185 -16
-91 -78 -307 -118 -410 -9 -25 -20 -54 -24 -65 -31 -80 -189 -386 -223 -430
-5 -5 -24 -35 -45 -65 -38 -58 -139 -193 -182 -245 -59 -70 -293 -296 -371
-359 -185 -148 -437 -299 -650 -388 -75 -32 -280 -104 -320 -113 -8 -2 -62
-15 -120 -29 -58 -14 -123 -27 -145 -31 -22 -3 -47 -7 -55 -10 -102 -29 -615
-37 -745 -11 -28 5 -94 16 -130 21 -139 18 -441 105 -549 156 -22 11 -44 19
-48 19 -9 0 -222 105 -278 137 -64 37 -145 87 -150 93 -3 4 -12 9 -20 12 -17
7 -218 157 -269 202 -50 44 -238 233 -285 285 -138 158 -309 419 -394 603 -78
169 -102 228 -102 247 0 9 -4 21 -8 26 -22 25 -96 302 -116 431 -8 49 -15 90
-21 129 -24 142 -24 516 0 685 2 14 6 44 9 67 28 207 112 492 207 701 16 35
29 65 29 67 0 3 25 51 56 107 127 233 287 449 467 630 105 106 126 124 212
193 27 22 61 50 75 63 14 12 28 22 32 22 3 0 13 6 20 13 11 11 120 85 183 124
97 60 251 137 410 204 86 36 296 103 365 115 14 3 43 10 65 16 22 5 51 12 65
14 14 2 34 5 45 7 22 5 112 18 160 23 17 2 80 6 140 10 61 3 111 7 112 8 3 2
120 -2 222 -8z"/>
<path d="M4171 5798 c-6 -18 -23 -50 -37 -71 -34 -51 -26 -70 14 -31 33 33 60
110 44 126 -6 6 -14 -3 -21 -24z"/>
<path d="M4260 5809 c0 -27 -64 -141 -104 -186 -24 -27 -54 -69 -67 -93 -23
-45 -52 -170 -39 -170 4 0 5 -11 3 -24 -3 -13 0 -27 7 -31 16 -10 17 -7 24 50
15 115 43 181 103 245 18 19 42 54 53 78 21 44 39 142 26 142 -3 0 -6 -5 -6
-11z"/>
<path d="M2380 5787 c0 -12 4 -36 9 -53 8 -29 6 -31 -36 -54 -54 -29 -103 -83
-103 -115 0 -40 15 -37 74 15 86 76 93 78 105 33 6 -21 17 -59 24 -84 30 -100
20 -150 -63 -298 -29 -50 -19 -64 19 -27 34 33 74 104 92 164 14 47 17 49 50
25 61 -45 123 -74 170 -80 61 -9 47 10 -39 50 -119 57 -145 82 -171 169 -13
40 -28 88 -34 105 -6 18 -9 35 -6 37 8 9 91 22 152 25 26 1 21 19 -10 34 -30
14 -83 14 -137 -2 -33 -9 -35 -8 -57 35 -24 48 -39 56 -39 21z"/>
<path d="M4314 5772 c5 -9 -42 -110 -63 -136 -24 -29 -1 -36 29 -10 27 25 58
94 54 122 -1 6 -2 17 -3 22 0 6 -6 10 -12 10 -5 0 -8 -4 -5 -8z"/>
<path d="M4344 5648 c-4 -6 3 -20 16 -30 l22 -18 -22 -63 c-13 -34 -26 -66
-30 -72 -4 -5 -13 -27 -19 -47 -8 -23 -19 -38 -29 -39 -9 0 -33 -1 -52 -2 -54
-3 -50 -17 12 -42 32 -13 71 -33 87 -44 16 -12 39 -21 50 -21 19 0 20 3 11 20
-6 12 -22 26 -36 32 -27 13 -30 36 -10 81 7 18 27 65 42 105 l29 73 40 -1 c61
-3 62 -2 25 23 -49 33 -128 59 -136 45z"/>
<path d="M4048 5597 c-61 -97 -89 -210 -59 -240 8 -8 11 -5 11 14 0 13 20 73
45 134 25 60 45 116 45 122 0 24 -15 13 -42 -30z"/>
<path d="M4183 5527 c-12 -18 -27 -45 -33 -61 -12 -33 -22 -176 -12 -176 4 0
16 35 26 78 10 42 27 101 36 130 20 61 13 74 -17 29z"/>
<path d="M3178 5325 c-1 -1 -34 -6 -71 -10 -37 -3 -78 -8 -90 -11 -102 -19
-144 -29 -222 -51 -497 -141 -918 -475 -1177 -930 -117 -206 -207 -465 -234
-673 -2 -19 -8 -64 -13 -99 -8 -65 -7 -367 3 -431 13 -97 28 -179 37 -215 6
-22 13 -49 15 -59 13 -70 102 -301 147 -386 64 -118 80 -145 119 -204 103
-154 279 -344 423 -458 154 -122 348 -231 537 -302 98 -36 306 -91 382 -101
23 -3 73 -9 111 -14 71 -8 383 -7 421 2 12 3 45 8 75 12 53 6 284 61 301 71 4
3 16 7 25 9 32 6 172 64 255 106 444 223 798 617 971 1080 20 52 38 107 41
122 2 15 7 30 10 35 3 5 7 19 10 33 3 13 12 56 20 94 8 39 17 84 20 100 2 17
5 30 6 30 6 0 14 167 13 290 0 142 -5 221 -19 290 -3 17 -7 39 -9 50 -24 149
-96 366 -172 520 -46 92 -157 275 -193 318 -6 7 -18 22 -28 33 -80 98 -145
166 -257 269 -137 125 -360 262 -553 339 -254 102 -469 143 -749 144 -83 0
-153 -1 -155 -3z m412 -89 c19 -4 71 -13 115 -21 44 -8 112 -24 150 -35 39
-12 77 -23 85 -25 29 -7 195 -77 254 -107 56 -28 198 -112 221 -130 6 -4 46
-35 90 -70 162 -125 321 -298 427 -463 39 -60 128 -219 128 -227 0 -2 -243 -3
-540 -2 l-539 0 -21 27 c-55 70 -159 71 -205 1 -27 -41 -25 -116 4 -155 21
-28 22 -36 12 -69 -15 -50 -78 -144 -136 -202 l-47 -46 -47 31 c-25 18 -55 37
-66 43 -11 6 -23 26 -27 45 -7 34 -47 78 -74 80 -8 1 -20 2 -26 3 -45 7 -118
-54 -118 -97 0 -16 -13 -29 -47 -47 -26 -14 -56 -33 -66 -44 -19 -18 -20 -17
-59 20 -48 47 -123 149 -138 190 -20 51 -20 64 6 101 27 41 30 78 10 128 -35
84 -152 96 -211 22 l-24 -31 -538 -1 -538 0 -3 -23 c-5 -34 43 -125 89 -172
22 -22 65 -54 94 -71 30 -17 57 -40 61 -52 21 -69 125 -168 206 -197 23 -9 39
-22 42 -36 11 -44 95 -122 172 -161 84 -41 87 -41 397 -42 191 -1 188 1 137
-82 l-29 -48 102 -3 c95 -3 102 -4 105 -24 4 -27 -8 -30 -135 -29 -57 1 -103
-1 -103 -3 0 -2 18 -25 41 -50 90 -103 129 -218 124 -367 -3 -99 -5 -111 -19
-150 -5 -11 -14 -37 -22 -59 -18 -46 -82 -142 -118 -175 -14 -14 -26 -27 -26
-31 0 -4 95 -6 210 -6 195 1 210 0 210 -17 0 -28 28 -87 50 -105 16 -13 22
-32 25 -82 2 -36 6 -92 9 -125 3 -33 8 -107 11 -165 20 -355 24 -375 74 -385
36 -7 59 11 70 53 9 34 13 77 26 302 24 382 23 377 50 406 14 15 30 45 37 68
7 23 15 43 19 46 4 3 100 5 213 4 l206 0 -23 25 c-12 13 -34 37 -48 53 -45 48
-94 150 -116 238 -9 34 -9 187 -1 230 19 95 69 193 129 253 35 35 36 37 16 42
-12 2 -66 3 -120 2 -87 -2 -98 0 -103 17 -10 30 6 35 108 38 l97 3 -29 47
c-47 75 -45 78 68 79 404 3 380 1 462 40 81 39 153 104 171 154 9 23 24 36 66
54 73 32 145 99 177 165 21 42 35 57 68 72 82 37 186 169 188 239 1 30 44 -61
79 -168 39 -120 55 -181 67 -257 3 -19 7 -42 9 -50 26 -95 26 -511 0 -600 -2
-8 -6 -31 -9 -51 -13 -108 -89 -336 -161 -481 -83 -165 -193 -329 -306 -453
-82 -89 -232 -216 -343 -290 -115 -77 -299 -175 -328 -175 -9 0 -18 -4 -20 -9
-2 -7 -149 -60 -183 -67 -5 -1 -37 -9 -70 -17 -68 -18 -103 -25 -160 -33 -22
-3 -47 -8 -55 -11 -25 -9 -382 -12 -440 -3 -30 5 -73 11 -95 14 -98 14 -223
45 -342 87 -95 33 -353 157 -353 169 0 4 -8 11 -17 14 -88 32 -360 273 -485
431 -196 248 -346 591 -384 880 -3 28 -9 54 -12 60 -10 16 -11 386 -1 450 5
33 12 75 14 94 12 80 61 270 87 336 34 88 42 107 86 199 140 292 402 583 689
764 45 29 85 52 88 52 4 0 19 8 33 18 32 22 188 90 287 125 86 31 277 74 365
83 36 3 67 8 69 10 6 6 383 -4 421 -10z m-749 -1086 c25 -14 24 -54 -2 -72
-42 -27 -15 -152 58 -267 37 -58 40 -61 108 -131 l44 -45 -19 -55 c-15 -45
-33 -158 -33 -217 0 -8 -15 -13 -38 -13 l-38 0 6 53 c8 82 11 82 -266 82 -130
1 -247 5 -261 9 -84 24 -180 86 -180 114 0 5 115 8 256 8 141 -1 260 2 266 5
6 4 -1 23 -17 47 l-27 41 -289 0 c-286 1 -290 1 -337 25 -52 26 -112 82 -112
103 0 11 25 14 123 13 67 -1 215 -1 329 -1 l208 1 -22 45 -22 44 -343 0 c-293
0 -347 2 -375 16 -41 19 -80 53 -103 88 l-17 27 518 2 519 3 3 25 c3 22 28 60
39 60 2 0 13 -5 24 -10z m1042 -8 c10 -10 18 -30 19 -45 l2 -26 506 0 c278 0
511 0 519 -1 10 0 9 -6 -5 -27 -20 -31 -33 -43 -86 -78 l-37 -25 -349 -1 -349
0 -21 -45 -22 -44 330 0 c272 0 330 -2 330 -14 0 -17 -44 -62 -95 -95 l-40
-26 -302 -3 -301 -3 -27 -40 c-14 -23 -24 -43 -21 -47 3 -3 123 -5 266 -5 157
0 260 -4 260 -10 0 -16 -61 -66 -105 -86 -71 -32 -101 -35 -348 -36 -270 -1
-260 3 -254 -82 l4 -53 -38 0 c-33 0 -37 2 -36 28 1 54 -15 158 -32 209 l-18
52 46 44 c60 57 71 72 113 144 36 62 63 134 72 192 4 26 -1 38 -20 56 -27 25
-29 37 -14 66 13 24 32 24 53 1z m-438 -424 c29 -16 26 -17 -103 -20 -72 -2
-132 0 -132 3 0 4 17 14 38 22 47 20 156 16 197 -5z m105 -114 c8 -21 6 -21
-211 -21 -120 0 -219 4 -219 8 0 4 6 14 13 21 11 10 59 13 212 13 191 0 198
-1 205 -21z m40 -117 l0 -22 -250 0 c-222 0 -250 2 -250 16 0 9 3 19 7 22 3 4
116 7 250 7 l243 0 0 -23z m-117 -96 c120 -1 127 -2 127 -21 0 -19 -7 -20
-260 -20 -251 0 -260 1 -260 19 0 23 35 27 180 24 47 -1 142 -2 213 -2z m-79
-170 c-14 -25 -42 -61 -62 -79 -102 -93 -100 -90 -97 -144 2 -27 6 -52 9 -56
20 -19 40 64 26 104 -9 23 -5 27 97 81 60 32 64 33 90 18 42 -23 67 -39 73
-46 3 -4 15 -9 27 -13 33 -10 37 11 5 28 -48 25 -104 81 -116 117 l-12 35 80
0 81 -1 0 -345 0 -345 -252 0 c-218 0 -253 2 -254 15 0 16 0 550 1 631 l0 46
165 0 164 0 -25 -46z m166 -720 c0 -13 -25 -20 -39 -12 -6 4 -9 15 -5 24 5 13
10 14 25 6 10 -5 19 -14 19 -18z m-480 6 c0 -8 -3 -17 -6 -20 -10 -9 -46 12
-39 24 9 14 45 11 45 -4z m95 -6 c0 -8 -10 -15 -22 -16 -15 -1 -21 4 -20 17 2
22 42 21 42 -1z m99 11 c7 -12 -7 -27 -26 -28 -11 -1 -18 5 -18 17 0 19 34 27
44 11z m91 -1 c3 -5 0 -13 -7 -18 -23 -14 -34 -11 -35 8 -2 20 31 27 42 10z
m95 -5 c0 -19 -26 -27 -39 -12 -13 15 -4 26 21 26 10 0 18 -6 18 -14z m185 4
c3 -5 4 -14 1 -19 -9 -13 -46 -1 -46 15 0 16 36 19 45 4z m-1 -77 c4 -11 -50
-13 -299 -13 -269 0 -328 4 -310 22 3 3 140 5 305 5 239 0 300 -3 304 -14z
m-227 -62 c16 -1 -1 -51 -23 -67 -15 -12 -17 -31 -30 -279 -4 -77 -8 -156 -9
-175 -2 -19 -4 -63 -4 -97 -1 -35 -5 -63 -9 -63 -4 0 -8 10 -8 23 -1 20 -4 73
-19 372 -11 192 -12 203 -34 231 -25 32 -27 51 -4 56 14 2 98 2 140 -1z m-69
-716 c-3 -3 -9 2 -12 12 -6 14 -5 15 5 6 7 -7 10 -15 7 -18z"/>
<path d="M1932 3070 c1 -39 14 -47 39 -24 18 16 18 18 3 36 -26 27 -43 22 -42
-12z"/>
<path d="M4735 3010 c-4 -11 -8 -35 -10 -52 -4 -26 -29 -78 -39 -78 -2 0 -1
23 2 50 3 33 1 50 -7 50 -6 0 -14 0 -18 0 -7 0 -9 -8 -12 -51 -1 -9 -10 -19
-21 -22 -12 -3 -20 -14 -20 -26 0 -24 12 -27 30 -6 9 11 15 12 25 2 16 -15 10
-27 -14 -27 -21 0 -73 -39 -53 -40 7 0 30 9 52 20 22 11 49 20 60 20 12 0 29
4 39 10 10 5 34 11 55 13 42 4 56 15 37 27 -8 5 -33 2 -60 -6 -55 -17 -51 -16
-51 -4 0 6 6 10 13 10 6 0 32 9 56 21 41 18 43 21 28 36 -15 15 -18 15 -43 -2
l-27 -17 7 28 c12 51 11 58 -6 62 -10 2 -19 -5 -23 -18z"/>
<path d="M1926 3002 c-3 -5 -2 -19 1 -31 7 -26 36 -24 41 3 5 25 -29 48 -42
28z"/>
<path d="M4020 3000 c-13 -8 -13 -13 3 -40 20 -33 20 -32 -43 -34 -28 -1 -36
-5 -38 -23 -6 -40 73 -42 141 -4 43 25 94 25 107 1 15 -28 -19 -43 -97 -43
-35 0 -64 -3 -65 -6 0 -3 -3 -17 -4 -31 -10 -76 -16 -98 -34 -122 -36 -48 -22
-95 20 -69 24 16 32 1 15 -26 -9 -13 -14 -32 -10 -41 5 -14 7 -14 21 -1 8 9
23 31 32 49 11 22 27 37 45 41 16 4 35 13 43 20 18 15 18 39 0 39 -7 0 -27 7
-42 15 -26 13 -30 13 -41 -2 -7 -9 -13 -25 -13 -35 0 -21 -31 -40 -49 -29 -17
11 0 46 29 61 16 9 18 15 10 30 -11 20 -4 50 12 50 5 0 6 9 3 20 -6 18 -2 20
37 21 84 1 130 20 125 51 -9 54 -14 57 -85 58 -20 0 -35 7 -39 16 -3 8 -18 21
-34 29 -33 18 -30 17 -49 5z"/>
<path d="M4479 3008 c-1 -2 -2 -24 -4 -50 -4 -59 -5 -60 -67 -93 -54 -28 -68
-41 -68 -62 0 -17 28 -16 60 0 52 27 60 28 60 4 0 -12 -13 -35 -28 -52 -16
-16 -35 -43 -44 -60 -8 -16 -24 -44 -34 -62 -27 -46 -9 -62 43 -38 21 9 43 24
49 31 9 12 13 5 18 -30 8 -49 16 -59 40 -50 13 5 15 19 11 84 -4 70 -2 80 20
111 27 35 28 54 4 54 -26 0 -22 51 6 81 25 27 19 49 -11 37 -8 -3 -11 7 -10
34 3 50 -2 63 -25 63 -10 0 -19 -1 -20 -2z"/>
<path d="M2093 2927 c-39 -42 -67 -83 -83 -123 -27 -69 -40 -87 -40 -57 0 13
-8 24 -19 28 -32 10 -35 41 -7 82 33 47 33 63 1 63 -14 0 -25 -4 -25 -9 0 -12
-56 -34 -68 -27 -15 9 -44 -18 -37 -35 6 -16 27 -17 72 -4 19 6 21 4 18 -33
-3 -52 -8 -58 -50 -66 -40 -8 -46 -15 -47 -56 -1 -39 26 -70 57 -64 85 15 95
24 135 119 38 91 97 169 135 181 15 5 13 -1 -11 -25 -20 -20 -33 -44 -36 -67
-5 -44 10 -58 47 -44 39 15 53 -1 31 -35 -14 -21 -20 -23 -36 -15 -10 5 -29
10 -42 10 -23 -1 -23 -1 -3 -15 37 -27 45 -36 40 -46 -4 -5 -13 -5 -25 1 -26
14 -30 13 -30 -10 0 -29 66 -40 85 -14 12 16 16 17 27 5 10 -11 10 -14 1 -18
-27 -10 -11 -23 26 -23 45 0 71 22 54 48 -5 10 -19 18 -31 20 -36 5 -45 26
-31 67 15 41 7 54 -37 59 -39 4 -43 32 -9 63 34 32 49 71 34 89 -20 24 -34 16
-96 -49z m-193 -205 c0 -4 -5 -13 -12 -20 -17 -17 18 -28 37 -12 9 7 18 11 20
8 9 -8 -5 -35 -18 -35 -7 -1 -26 -4 -44 -8 -26 -6 -33 -3 -42 14 -9 17 -8 24
9 41 20 20 50 27 50 12z"/>
<path d="M2732 2977 c-7 -8 -9 -63 -6 -158 5 -139 4 -146 -17 -165 -11 -10
-23 -18 -25 -16 -12 7 -15 0 -4 -13 17 -21 42 -19 73 5 l26 21 -6 145 c-3 80
-6 153 -8 162 -2 10 -4 20 -4 25 -1 11 -17 8 -29 -6z"/>
<path d="M2501 2918 c-55 -27 -40 -34 28 -14 65 19 74 9 74 -82 0 -66 -14
-112 -33 -112 -5 0 -1 -13 8 -30 37 -64 59 -22 57 105 -2 50 -4 91 -5 93 -1 1
-3 6 -4 12 -2 20 -37 50 -58 50 -13 0 -43 -10 -67 -22z"/>
<path d="M2549 2872 c-8 -23 -15 -30 -23 -23 -13 11 -45 -3 -33 -15 4 -4 2
-13 -4 -21 -16 -18 -23 -89 -10 -97 11 -7 44 7 68 28 7 6 19 17 28 24 12 11
13 17 4 28 -6 8 -9 27 -5 46 3 18 1 40 -4 48 -7 12 -12 8 -21 -18z m1 -72 c0
-5 -4 -10 -10 -10 -5 0 -10 5 -10 10 0 6 5 10 10 10 6 0 10 -4 10 -10z m-43
-52 c-3 -8 -6 -5 -6 6 -1 11 2 17 5 13 3 -3 4 -12 1 -19z"/>
<path d="M2438 2864 c-3 -5 -9 -36 -13 -68 -4 -33 -11 -71 -16 -85 -13 -34 -4
-58 16 -41 18 15 36 78 37 130 0 39 -15 80 -24 64z"/>
<path d="M4737 2817 c-37 -40 -39 -41 -52 -23 -8 10 -12 23 -9 27 3 5 1 9 -5
9 -16 0 -25 -22 -26 -63 -2 -35 0 -38 21 -33 22 6 23 4 17 -26 -3 -18 -14 -41
-24 -52 -20 -21 -15 -41 8 -32 11 5 13 -1 9 -24 -7 -45 27 -40 51 8 11 24 26
38 41 40 31 5 28 32 -4 32 -26 0 -26 1 -10 25 16 25 16 25 -11 25 l-28 1 24
19 c12 11 27 17 32 14 5 -3 9 -1 9 5 0 5 -9 11 -21 13 -21 3 -20 4 5 31 26 28
33 47 19 47 -5 0 -25 -19 -46 -43z"/>
<path d="M2672 2803 c4 -66 28 -70 28 -4 0 39 -4 51 -16 51 -12 0 -14 -10 -12
-47z"/>
<path d="M4130 2596 c0 -30 14 -40 46 -32 38 10 28 38 -18 50 -25 6 -28 4 -28
-18z"/>
<path d="M4750 2595 c0 -8 8 -15 18 -15 14 -1 14 -3 -5 -19 -33 -28 -28 -39
15 -34 68 9 79 33 30 63 -39 24 -58 25 -58 5z"/>
<path d="M3191 3251 c-10 -7 -14 -40 -14 -143 0 -141 7 -188 25 -170 12 12 20
276 9 304 -4 11 -11 14 -20 9z"/>
<path d="M3111 3191 c0 -42 4 -61 14 -64 21 -9 34 40 22 85 -15 60 -35 48 -36
-21z"/>
<path d="M3254 3239 c-11 -18 -13 -108 -2 -115 11 -7 94 57 112 88 24 40 2 45
-43 9 -42 -33 -56 -39 -48 -18 2 6 1 21 -3 31 -5 16 -8 17 -16 5z"/>
<path d="M3478 3245 c-11 -11 18 -56 39 -61 40 -11 46 0 18 34 -25 30 -45 39
-57 27z"/>
<path d="M3399 3070 c-8 -26 -30 -58 -61 -88 -26 -25 -48 -49 -48 -53 0 -19
77 12 129 53 24 18 25 18 51 -7 14 -14 31 -25 36 -25 6 0 15 -5 22 -12 6 -6
19 -13 27 -14 26 -4 16 24 -17 47 -46 33 -52 39 -79 89 -14 24 -30 45 -36 47
-7 3 -17 -14 -24 -37z"/>
<path d="M3334 3092 c-30 -22 -38 -103 -8 -84 10 6 44 65 44 75 0 9 -27 15
-36 9z"/>
<path d="M3480 3076 c0 -19 54 -76 72 -76 30 0 26 13 -13 51 -43 41 -59 48
-59 25z"/>
<path d="M3117 3073 c-9 -8 -9 -107 -1 -116 17 -16 34 8 34 48 0 62 -13 89
-33 68z"/>
<path d="M3113 2899 c-12 -12 -6 -129 8 -144 23 -24 39 71 23 133 -7 24 -15
27 -31 11z"/>
<path d="M3176 2878 c-10 -38 -7 -288 3 -288 16 0 23 18 26 68 4 53 8 198 6
225 -2 25 -28 21 -35 -5z"/>
<path d="M3239 2868 c0 -18 -2 -43 -3 -54 -1 -12 1 -32 6 -44 21 -57 53 47 34
108 -11 34 -36 28 -37 -10z"/>
<path d="M3400 2872 c-47 -2 -89 -7 -93 -11 -12 -12 21 -41 48 -41 34 0 39
-16 17 -54 -22 -37 -18 -50 16 -60 41 -13 14 -71 -31 -65 -45 6 -63 -26 -23
-40 35 -13 208 -5 217 11 14 21 5 33 -29 36 -40 4 -57 31 -41 66 13 29 2 51
-32 61 -42 14 -4 55 50 55 36 0 82 22 70 34 -8 8 -72 11 -169 8z"/>
<path d="M3240 2715 c-10 -12 -10 -65 -1 -113 1 -2 11 -2 23 0 24 3 28 26 14
85 -9 39 -20 48 -36 28z"/>
<path d="M3109 2713 c-4 -28 -3 -106 1 -113 21 -34 48 64 28 103 -9 17 -27 23
-29 10z"/>
<path d="M1130 4797 c0 -7 5 -18 10 -23 8 -8 7 -19 -1 -38 -17 -36 -4 -45 22
-13 17 23 24 25 41 16 17 -9 19 -17 14 -51 l-7 -40 24 28 24 28 12 -22 c7 -12
9 -27 6 -32 -3 -6 -3 -15 1 -21 9 -15 33 27 34 58 0 28 -27 53 -100 92 -63 34
-80 38 -80 18z"/>
<path d="M5492 4794 c-7 -7 -37 -21 -67 -30 -58 -16 -65 -34 -13 -34 34 0 79
24 96 51 14 22 2 32 -16 13z"/>
<path d="M5530 4744 c-37 -28 -109 -63 -138 -68 -9 -2 -37 -7 -62 -11 -25 -4
-68 -18 -96 -30 -60 -27 -144 -103 -144 -131 1 -16 5 -14 28 12 64 73 143 112
244 120 26 2 62 10 81 17 38 16 103 70 118 98 12 24 12 24 -31 -7z"/>
<path d="M1088 4682 c2 -19 -3 -33 -17 -46 -12 -11 -21 -26 -21 -35 0 -12 3
-12 12 -3 17 17 28 15 28 -7 0 -11 5 -23 10 -26 11 -7 30 34 23 51 -4 11 9 20
32 23 20 2 10 -54 -12 -72 -30 -24 -29 -35 1 -30 19 4 25 0 28 -16 2 -12 8
-22 13 -21 10 0 11 3 14 34 0 8 13 29 27 46 29 34 27 48 -5 30 -18 -9 -22 -7
-31 15 -5 14 -14 25 -20 25 -7 0 -9 9 -5 23 6 20 5 21 -8 5 -20 -25 -36 -22
-47 7 -13 34 -28 32 -22 -3z"/>
<path d="M5237 4695 c-52 -19 -117 -65 -136 -95 l-15 -25 24 20 c14 11 27 22
30 25 3 3 40 21 83 39 43 19 80 38 83 42 8 13 -25 10 -69 -6z"/>
<path d="M5555 4693 c-11 -8 -39 -23 -62 -34 -50 -21 -56 -39 -13 -34 36 5 60
17 84 43 24 27 17 45 -9 25z"/>
<path d="M1355 4651 c-35 -10 -51 -25 -88 -77 -62 -86 -74 -126 -64 -209 6
-47 42 -83 136 -138 61 -36 91 -46 91 -29 0 13 -29 36 -85 68 -147 83 -157
205 -25 330 42 40 86 37 196 -16 58 -28 92 -39 107 -34 20 6 20 7 1 21 -69 54
-216 99 -269 84z"/>
<path d="M5597 4635 c-10 -7 -41 -19 -68 -25 -52 -13 -62 -24 -29 -33 33 -8
89 12 106 39 20 29 16 37 -9 19z"/>
<path d="M5295 4586 c-59 -19 -102 -43 -119 -68 -24 -34 -20 -53 7 -26 24 25
41 34 130 68 86 33 72 54 -18 26z"/>
<path d="M5590 4559 c-66 -27 -83 -30 -140 -24 l-65 6 24 -21 c14 -12 37 -20
61 -20 37 0 38 -1 33 -27 -10 -48 -7 -123 5 -135 9 -9 11 -3 11 23 -1 77 27
130 88 169 25 16 50 31 56 33 5 1 8 8 6 14 -3 8 -29 2 -79 -18z"/>
<path d="M1329 4563 c-23 -6 -59 -76 -59 -117 0 -26 6 -40 24 -51 27 -18 50
-12 87 22 25 23 26 23 43 4 16 -18 15 -20 -22 -49 -21 -17 -50 -34 -65 -37
-37 -10 -34 -20 7 -23 41 -3 78 10 106 38 17 17 28 20 48 14 40 -11 45 -11 65
-2 24 12 21 25 -5 23 -48 -4 -58 10 -51 78 5 54 2 65 -16 87 l-21 25 4 -45 c2
-25 0 -55 -5 -67 -7 -20 -11 -21 -32 -12 -17 8 -23 17 -20 30 14 54 -30 95
-88 82z m54 -42 c12 -47 -16 -95 -58 -103 -29 -4 -31 31 -5 81 22 44 54 55 63
22z"/>
<path d="M1018 4518 c-13 -18 -29 -33 -35 -34 -28 -2 -33 -4 -33 -13 0 -5 12
-12 26 -15 14 -4 44 -19 67 -34 71 -45 94 -53 111 -36 18 17 30 53 22 62 -4 3
-13 -4 -22 -16 -12 -18 -18 -20 -33 -10 -17 10 -17 14 -5 45 17 39 9 43 -18 8
-22 -28 -40 -32 -57 -11 -9 11 -9 22 3 50 19 45 4 47 -26 4z"/>
<path d="M5644 4501 c-38 -23 -51 -40 -59 -76 l-7 -30 33 36 c19 19 46 44 61
56 36 27 13 39 -28 14z"/>
<path d="M5340 4488 c-14 -5 -42 -10 -62 -10 -45 1 -56 -11 -25 -25 36 -16
115 6 125 35 4 14 -4 14 -38 0z"/>
<path d="M5363 4432 c-23 -9 -45 -20 -49 -24 -12 -13 -75 -9 -128 7 -63 19
-69 19 -57 -4 13 -23 61 -41 112 -41 22 0 39 -1 39 -2 0 -2 -7 -28 -15 -58
-17 -62 -19 -116 -6 -124 5 -3 15 18 22 47 26 112 54 153 122 182 39 16 50 35
20 34 -10 0 -37 -8 -60 -17z"/>
<path d="M5391 4343 c-17 -16 -33 -41 -37 -58 l-7 -30 34 35 c19 19 48 45 64
57 l30 22 -27 1 c-17 0 -40 -11 -57 -27z"/>
<path d="M5488 3393 c-3 -4 -5 -28 -6 -53 l-2 -45 86 -59 c81 -55 93 -73 53
-80 -8 -1 -47 -19 -86 -39 -63 -32 -73 -41 -74 -65 -1 -42 -11 -88 -68 -302
-16 -63 -29 -115 -28 -116 1 0 17 -6 35 -12 32 -11 34 -10 46 21 8 18 17 47
21 65 4 21 12 32 23 32 9 0 85 -19 167 -41 200 -54 196 -54 211 -2 l13 43 -52
14 c-29 8 -112 31 -186 50 -73 19 -136 37 -138 40 -3 3 0 21 7 41 22 67 23 95
4 95 -29 0 -7 15 112 78 l110 59 75 -4 c41 -2 85 -5 99 -6 22 -2 26 3 31 41 3
24 2 45 -2 48 -4 2 -38 7 -76 10 -37 3 -80 6 -95 8 -14 2 -71 37 -125 78 -124
94 -150 111 -155 101z"/>
<path d="M1135 3378 c9 -26 11 -119 3 -124 -5 -3 -37 -7 -71 -9 -148 -7 -273
-16 -292 -20 -16 -3 -20 -11 -19 -32 1 -15 3 -36 3 -47 1 -17 8 -18 94 -12 50
4 139 9 197 12 l105 6 1 -56 c2 -77 5 -83 48 -78 l37 4 -6 102 c-3 55 -8 128
-10 161 -2 33 -4 70 -4 83 -1 19 -6 22 -46 22 -31 0 -43 -4 -40 -12z"/>
<path d="M770 2974 c0 -3 5 -25 11 -50 7 -28 17 -44 28 -45 69 -5 83 -7 90
-15 5 -5 16 -40 25 -79 10 -38 19 -75 21 -82 2 -7 -18 -28 -45 -48 -48 -35
-48 -36 -39 -73 16 -60 19 -67 27 -56 4 6 43 35 87 65 44 30 82 56 85 59 3 3
56 41 118 85 l114 79 -7 35 c-9 49 -22 71 -43 72 -9 0 -28 2 -42 4 -14 2 -63
8 -110 15 -47 6 -96 13 -110 15 -118 17 -210 26 -210 19z m349 -129 c18 -2 35
-6 38 -9 3 -2 -15 -17 -39 -33 -23 -15 -45 -30 -48 -33 -6 -6 -48 -30 -53 -30
-2 0 -4 6 -4 13 -1 21 -11 66 -18 77 -3 5 -3 14 0 20 6 9 22 8 124 -5z"/>
<path d="M1122 2520 c-111 -55 -202 -104 -202 -110 0 -6 8 -23 17 -38 9 -15
18 -28 19 -30 0 -1 65 29 143 68 78 38 145 70 149 70 10 -1 -69 -71 -166 -150
-45 -36 -81 -72 -81 -80 -1 -8 8 -29 18 -46 l19 -32 139 30 c230 49 233 48 83
-22 -52 -25 -96 -48 -98 -52 -2 -5 -9 -8 -16 -8 -18 0 -66 -24 -66 -33 0 -7
28 -66 35 -75 1 -1 60 26 131 61 71 35 161 79 199 97 99 48 96 42 67 103 -13
28 -28 57 -33 63 -6 7 -54 1 -159 -21 -82 -17 -150 -28 -150 -25 0 7 15 21
120 110 36 30 76 65 89 77 l24 21 -30 58 c-17 32 -35 60 -40 61 -5 2 -100 -42
-211 -97z"/>
<path d="M5326 2564 l-15 -45 42 -18 c23 -10 65 -26 92 -36 28 -10 55 -22 60
-25 6 -4 28 -13 50 -20 22 -7 60 -21 85 -32 118 -51 103 -51 124 -1 10 24 17
45 15 47 -4 3 -351 143 -411 165 -25 9 -27 8 -42 -35z"/>
<path d="M5303 2408 c-64 -17 -130 -110 -137 -193 -7 -76 47 -135 124 -135 43
0 79 22 152 94 65 63 96 71 118 31 10 -20 11 -33 2 -63 -16 -53 -44 -75 -95
-78 -37 -1 -44 -6 -59 -35 -23 -46 -23 -47 15 -57 92 -25 182 35 222 149 29
82 9 149 -57 189 -65 40 -131 21 -208 -60 -25 -26 -59 -55 -74 -65 -28 -19
-29 -19 -47 4 -17 21 -17 25 -3 59 21 51 37 65 77 66 29 1 37 7 55 38 14 27
17 40 8 46 -18 15 -58 19 -93 10z"/>
<path d="M1378 2027 l-177 -142 17 -25 c35 -55 38 -55 98 -9 47 36 61 42 97
40 61 -4 67 -4 67 -5 0 -1 -20 -52 -45 -115 -25 -63 -43 -122 -40 -130 6 -20
63 -87 68 -81 6 6 40 102 81 223 17 51 36 91 41 91 6 -1 46 -5 89 -9 44 -3 94
-8 113 -11 35 -4 39 -1 23 19 -55 70 -65 78 -116 83 -52 5 -144 12 -199 13
l-30 1 25 20 c14 11 51 40 82 64 l56 43 -25 37 c-15 20 -31 36 -37 35 -6 0
-91 -64 -188 -142z"/>
<path d="M5043 2043 c-21 -14 -74 -68 -117 -121 l-79 -95 34 -31 c56 -50 98
-86 204 -176 55 -47 103 -89 107 -95 7 -9 68 50 68 66 0 6 -85 83 -125 114
-20 15 -20 15 11 43 33 31 40 31 189 17 l70 -7 33 36 c34 38 40 53 20 53 -7 0
-35 4 -63 8 -27 5 -77 8 -111 8 l-61 0 12 41 c13 45 4 91 -24 114 -68 55 -112
62 -168 25z m95 -93 c12 -12 22 -28 22 -37 0 -17 -35 -68 -78 -115 l-25 -27
-43 36 c-49 42 -49 44 21 116 50 52 70 57 103 27z"/>
<path d="M4739 1740 c-70 -56 -69 -55 -150 -121 l-57 -46 29 -31 c16 -17 29
-35 29 -41 0 -5 4 -11 8 -13 4 -1 29 -30 55 -63 27 -33 54 -67 60 -75 7 -8 34
-43 61 -78 l48 -63 26 17 c26 17 203 154 212 164 3 4 15 13 27 21 l22 15 -27
32 -27 32 -100 -80 -100 -80 -37 42 c-21 24 -38 46 -38 50 0 10 24 33 93 85
91 69 87 64 64 95 -12 16 -26 28 -31 28 -6 0 -50 -31 -97 -69 l-86 -69 -24 32
c-14 17 -28 36 -32 42 -4 6 14 26 41 45 26 18 52 38 57 45 6 6 27 23 48 39 20
15 37 32 37 39 -1 11 -34 56 -43 56 -2 0 -33 -23 -68 -50z"/>
<path d="M1865 1713 c-33 -19 -89 -51 -125 -70 -79 -44 -223 -125 -230 -130
-2 -2 12 -19 32 -37 l36 -34 52 30 51 29 51 -43 c97 -81 93 -73 73 -133 l-18
-52 34 -31 c26 -23 37 -28 45 -19 10 11 154 444 154 463 0 14 -64 64 -80 63
-8 0 -42 -17 -75 -36z m25 -140 c-10 -32 -24 -70 -30 -85 l-13 -27 -43 41
c-24 22 -42 44 -40 47 3 3 22 15 43 26 21 10 49 27 62 37 37 28 40 22 21 -39z"/>
<path d="M2131 1478 c-24 -46 -72 -136 -108 -201 -35 -65 -61 -122 -58 -127
11 -19 67 -42 74 -32 3 6 35 64 71 131 35 66 66 119 67 117 4 -4 12 -129 22
-333 1 -13 69 -55 83 -51 10 4 26 31 110 188 25 47 62 115 82 152 l36 68 -40
20 c-21 11 -41 17 -43 12 -9 -15 -55 -99 -92 -167 -47 -88 -55 -97 -56 -60 0
17 -2 55 -4 85 -2 30 -6 97 -9 148 -2 52 -6 95 -8 97 -8 7 -68 35 -75 35 -4 0
-28 -37 -52 -82z"/>
<path d="M4467 1536 c-20 -12 -35 -25 -33 -27 3 -3 7 -18 10 -34 3 -17 12 -70
20 -120 9 -49 18 -108 22 -130 3 -22 8 -43 11 -47 17 -30 -30 9 -137 112 -133
127 -133 126 -192 90 l-28 -17 117 -109 c64 -60 146 -137 182 -171 l66 -61 47
24 c43 22 48 28 44 52 -3 15 -7 45 -11 67 -3 22 -7 51 -10 65 -2 14 -6 45 -9
70 -3 25 -8 54 -10 66 -2 12 -7 43 -11 70 -3 27 -8 58 -10 69 -2 11 -4 28 -4
38 -1 22 -17 20 -64 -7z"/>
<path d="M4085 1354 c-22 -7 -41 -14 -42 -14 -8 0 -1 -33 11 -62 8 -18 38 -98
66 -178 28 -80 54 -152 57 -160 4 -8 7 -18 7 -22 2 -18 19 -20 56 -8 22 7 40
18 40 24 0 7 -33 101 -73 211 -41 110 -76 205 -78 212 -3 8 -14 8 -44 -3z"/>
<path d="M2655 1320 c-105 -23 -170 -106 -182 -234 -10 -107 33 -186 124 -227
76 -34 204 -38 247 -6 9 7 27 51 40 99 l24 88 -41 10 c-23 6 -62 18 -86 25
-59 20 -69 19 -75 -5 -3 -11 -8 -28 -11 -38 -4 -15 4 -21 46 -31 48 -12 50
-15 44 -40 -9 -35 -14 -39 -55 -43 -46 -3 -99 10 -121 31 -22 20 -46 78 -44
106 5 73 42 148 86 170 64 34 155 1 173 -62 8 -27 15 -32 48 -35 52 -5 62 3
53 43 -21 97 -158 173 -270 149z"/>
<path d="M3925 1301 c-32 -7 -40 -32 -24 -77 4 -11 10 -38 13 -58 4 -21 8 -41
10 -45 2 -3 7 -24 10 -45 4 -21 9 -51 13 -65 5 -22 -2 -17 -46 29 -29 30 -86
90 -127 133 -70 73 -76 78 -107 72 -61 -12 -61 -9 -26 -166 41 -190 39 -180
44 -214 10 -66 21 -90 41 -88 10 2 29 4 42 5 12 1 22 7 22 13 0 13 -48 245
-55 263 -2 6 2 12 9 12 8 0 16 -4 18 -9 2 -5 50 -59 108 -120 105 -112 105
-112 144 -107 22 3 44 10 49 15 5 5 -1 50 -13 107 -12 55 -23 108 -26 119 -2
11 -6 31 -9 45 -8 37 -15 70 -25 123 -10 52 -17 68 -28 66 -4 -1 -20 -4 -37
-8z"/>
<path d="M3177 1215 c-6 -15 0 -316 7 -350 14 -73 77 -117 169 -118 70 -1 105
5 135 24 21 13 54 63 59 89 3 17 6 180 4 291 l-1 77 -40 -2 c-21 -1 -43 -5
-47 -10 -4 -4 -8 -83 -8 -176 -1 -146 -4 -172 -19 -189 -34 -38 -124 -31 -148
12 -8 14 -13 75 -15 167 -1 80 -2 156 -2 171 -1 23 -4 25 -46 25 -25 -1 -46
-5 -48 -11z"/>
</g>
</svg>
